<svg width="375" height="667" viewBox="0 0 375 667" fill="none" xmlns="http://www.w3.org/2000/svg">
<g clip-path="url(#clip0)">
<rect width="375" height="667" fill="white"/>
<rect opacity="0.8" width="375" height="667" fill="url(#paint0_linear)"/>
<g filter="url(#filter0_d)">
<rect x="54" y="82" width="267" height="455" rx="5" fill="white"/>
</g>
<rect x="64" y="227" width="247" height="10" rx="5" fill="#E9E9E9"/>
<rect x="64" y="382" width="247" height="10" rx="5" fill="#E9E9E9"/>
<rect x="54.5" y="569.5" width="270" height="49" rx="4.5" stroke="white"/>
<path d="M131.215 599.28C131.239 599.376 131.251 599.448 131.251 599.496C131.251 599.652 131.197 599.778 131.089 599.874C130.981 599.97 130.855 600.018 130.711 600.018C130.591 600.018 130.483 599.988 130.387 599.928C130.303 599.856 130.237 599.766 130.189 599.658L128.839 596.364H122.989L121.657 599.658C121.561 599.898 121.399 600.018 121.171 600.018C121.003 600.018 120.877 599.976 120.793 599.892C120.709 599.808 120.661 599.694 120.649 599.55V599.496C120.649 599.424 120.655 599.37 120.667 599.334L125.419 587.706C125.515 587.466 125.695 587.346 125.959 587.346C126.079 587.346 126.181 587.382 126.265 587.454C126.361 587.514 126.433 587.598 126.481 587.706L131.215 599.28ZM123.403 595.302H128.407L125.887 589.146L123.403 595.302ZM140.673 586.68C140.829 586.68 140.955 586.734 141.051 586.842C141.159 586.938 141.213 587.064 141.213 587.22V599.46C141.213 599.616 141.159 599.748 141.051 599.856C140.955 599.952 140.829 600 140.673 600C140.517 600 140.385 599.952 140.277 599.856C140.181 599.748 140.133 599.616 140.133 599.46V598.2C139.833 598.752 139.383 599.22 138.783 599.604C138.195 599.988 137.541 600.18 136.821 600.18C136.029 600.18 135.309 599.976 134.661 599.568C134.025 599.148 133.521 598.572 133.149 597.84C132.777 597.108 132.591 596.286 132.591 595.374C132.591 594.474 132.777 593.658 133.149 592.926C133.521 592.194 134.025 591.624 134.661 591.216C135.309 590.796 136.023 590.586 136.803 590.586C137.511 590.586 138.165 590.766 138.765 591.126C139.365 591.474 139.821 591.93 140.133 592.494V587.22C140.133 587.064 140.181 586.938 140.277 586.842C140.385 586.734 140.517 586.68 140.673 586.68ZM136.929 599.172C137.553 599.172 138.111 599.01 138.603 598.686C139.107 598.362 139.497 597.912 139.773 597.336C140.061 596.748 140.205 596.094 140.205 595.374C140.205 594.666 140.061 594.024 139.773 593.448C139.497 592.872 139.107 592.422 138.603 592.098C138.111 591.762 137.553 591.594 136.929 591.594C136.305 591.594 135.741 591.762 135.237 592.098C134.745 592.422 134.355 592.872 134.067 593.448C133.791 594.024 133.653 594.666 133.653 595.374C133.653 596.094 133.791 596.742 134.067 597.318C134.355 597.894 134.745 598.35 135.237 598.686C135.741 599.01 136.305 599.172 136.929 599.172ZM145.075 599.46C145.075 599.616 145.021 599.748 144.913 599.856C144.817 599.952 144.691 600 144.535 600C144.379 600 144.247 599.952 144.139 599.856C144.043 599.748 143.995 599.616 143.995 599.46V591.18C143.995 591.024 144.043 590.898 144.139 590.802C144.247 590.694 144.379 590.64 144.535 590.64C144.691 590.64 144.817 590.694 144.913 590.802C145.021 590.898 145.075 591.024 145.075 591.18V599.46ZM144.535 589.434C144.295 589.434 144.109 589.38 143.977 589.272C143.845 589.152 143.779 588.984 143.779 588.768V588.588C143.779 588.372 143.845 588.21 143.977 588.102C144.121 587.982 144.313 587.922 144.553 587.922C145.033 587.922 145.273 588.144 145.273 588.588V588.768C145.273 588.984 145.207 589.152 145.075 589.272C144.955 589.38 144.775 589.434 144.535 589.434ZM151.859 590.586C152.423 590.586 152.945 590.652 153.425 590.784C153.917 590.904 154.307 591.072 154.595 591.288C154.895 591.504 155.045 591.738 155.045 591.99C155.045 592.122 154.997 592.242 154.901 592.35C154.817 592.458 154.709 592.512 154.577 592.512C154.457 592.512 154.355 592.488 154.271 592.44C154.199 592.392 154.115 592.32 154.019 592.224C153.863 592.068 153.713 591.954 153.569 591.882C153.389 591.798 153.149 591.732 152.849 591.684C152.561 591.624 152.249 591.594 151.913 591.594C151.253 591.594 150.647 591.762 150.095 592.098C149.555 592.434 149.129 592.89 148.817 593.466C148.505 594.042 148.349 594.678 148.349 595.374C148.349 596.094 148.499 596.742 148.799 597.318C149.099 597.894 149.513 598.35 150.041 598.686C150.581 599.01 151.193 599.172 151.877 599.172C152.309 599.172 152.651 599.136 152.903 599.064C153.167 598.992 153.425 598.89 153.677 598.758C153.761 598.71 153.905 598.602 154.109 598.434C154.205 598.35 154.289 598.29 154.361 598.254C154.433 598.206 154.511 598.182 154.595 598.182C154.739 598.182 154.853 598.23 154.937 598.326C155.021 598.41 155.063 598.524 155.063 598.668C155.063 598.872 154.919 599.094 154.631 599.334C154.343 599.562 153.947 599.76 153.443 599.928C152.939 600.096 152.381 600.18 151.769 600.18C150.893 600.18 150.113 599.976 149.429 599.568C148.745 599.148 148.211 598.572 147.827 597.84C147.455 597.108 147.269 596.286 147.269 595.374C147.269 594.498 147.461 593.7 147.845 592.98C148.229 592.248 148.769 591.666 149.465 591.234C150.161 590.802 150.959 590.586 151.859 590.586ZM158.171 599.46C158.171 599.616 158.117 599.748 158.009 599.856C157.913 599.952 157.787 600 157.631 600C157.475 600 157.343 599.952 157.235 599.856C157.139 599.748 157.091 599.616 157.091 599.46V591.18C157.091 591.024 157.139 590.898 157.235 590.802C157.343 590.694 157.475 590.64 157.631 590.64C157.787 590.64 157.913 590.694 158.009 590.802C158.117 590.898 158.171 591.024 158.171 591.18V599.46ZM157.631 589.434C157.391 589.434 157.205 589.38 157.073 589.272C156.941 589.152 156.875 588.984 156.875 588.768V588.588C156.875 588.372 156.941 588.21 157.073 588.102C157.217 587.982 157.409 587.922 157.649 587.922C158.129 587.922 158.369 588.144 158.369 588.588V588.768C158.369 588.984 158.303 589.152 158.171 589.272C158.051 589.38 157.871 589.434 157.631 589.434ZM169.473 595.392C169.473 596.292 169.275 597.108 168.879 597.84C168.483 598.572 167.937 599.148 167.241 599.568C166.545 599.976 165.771 600.18 164.919 600.18C164.067 600.18 163.293 599.976 162.597 599.568C161.901 599.148 161.355 598.572 160.959 597.84C160.563 597.108 160.365 596.292 160.365 595.392C160.365 594.492 160.563 593.676 160.959 592.944C161.355 592.212 161.901 591.636 162.597 591.216C163.293 590.796 164.067 590.586 164.919 590.586C165.771 590.586 166.545 590.796 167.241 591.216C167.937 591.636 168.483 592.212 168.879 592.944C169.275 593.676 169.473 594.492 169.473 595.392ZM168.393 595.392C168.393 594.672 168.243 594.024 167.943 593.448C167.643 592.872 167.223 592.422 166.683 592.098C166.155 591.762 165.567 591.594 164.919 591.594C164.271 591.594 163.683 591.762 163.155 592.098C162.627 592.422 162.207 592.872 161.895 593.448C161.595 594.024 161.445 594.672 161.445 595.392C161.445 596.1 161.595 596.742 161.895 597.318C162.207 597.894 162.627 598.35 163.155 598.686C163.683 599.01 164.271 599.172 164.919 599.172C165.567 599.172 166.155 599.01 166.683 598.686C167.223 598.362 167.643 597.912 167.943 597.336C168.243 596.76 168.393 596.112 168.393 595.392ZM176.02 590.586C177.136 590.586 177.952 590.916 178.468 591.576C178.996 592.224 179.26 593.088 179.26 594.168V599.46C179.26 599.616 179.206 599.748 179.098 599.856C178.99 599.952 178.864 600 178.72 600C178.564 600 178.432 599.952 178.324 599.856C178.228 599.748 178.18 599.616 178.18 599.46V594.222C178.18 593.442 177.982 592.812 177.586 592.332C177.202 591.84 176.602 591.594 175.786 591.594C175.27 591.594 174.778 591.714 174.31 591.954C173.854 592.194 173.482 592.518 173.194 592.926C172.906 593.322 172.762 593.754 172.762 594.222V599.46C172.762 599.616 172.708 599.748 172.6 599.856C172.504 599.952 172.378 600 172.222 600C172.066 600 171.934 599.952 171.826 599.856C171.73 599.748 171.682 599.616 171.682 599.46V591.396C171.682 591.24 171.73 591.114 171.826 591.018C171.934 590.91 172.066 590.856 172.222 590.856C172.378 590.856 172.504 590.91 172.6 591.018C172.708 591.114 172.762 591.24 172.762 591.396V592.386C173.086 591.87 173.548 591.444 174.148 591.108C174.76 590.76 175.384 590.586 176.02 590.586ZM189.558 590.802C189.714 590.802 189.84 590.856 189.936 590.964C190.044 591.072 190.098 591.204 190.098 591.36V599.46C190.098 599.616 190.044 599.748 189.936 599.856C189.84 599.952 189.714 600 189.558 600C189.402 600 189.27 599.952 189.162 599.856C189.066 599.748 189.018 599.616 189.018 599.46V598.254C188.718 598.794 188.268 599.25 187.668 599.622C187.068 599.994 186.414 600.18 185.706 600.18C184.902 600.18 184.176 599.97 183.528 599.55C182.892 599.13 182.388 598.554 182.016 597.822C181.656 597.09 181.476 596.268 181.476 595.356C181.476 594.444 181.662 593.628 182.034 592.908C182.406 592.176 182.91 591.606 183.546 591.198C184.194 590.79 184.908 590.586 185.688 590.586C186.408 590.586 187.068 590.76 187.668 591.108C188.268 591.456 188.718 591.912 189.018 592.476V591.36C189.018 591.204 189.066 591.072 189.162 590.964C189.27 590.856 189.402 590.802 189.558 590.802ZM185.814 599.172C186.438 599.172 186.996 599.01 187.488 598.686C187.992 598.35 188.382 597.894 188.658 597.318C188.946 596.73 189.09 596.076 189.09 595.356C189.09 594.66 188.946 594.024 188.658 593.448C188.382 592.872 187.992 592.422 187.488 592.098C186.996 591.762 186.438 591.594 185.814 591.594C185.19 591.594 184.626 591.756 184.122 592.08C183.63 592.404 183.24 592.854 182.952 593.43C182.676 593.994 182.538 594.636 182.538 595.356C182.538 596.076 182.676 596.73 182.952 597.318C183.228 597.894 183.612 598.35 184.104 598.686C184.608 599.01 185.178 599.172 185.814 599.172ZM197.218 590.586C197.458 590.586 197.674 590.634 197.866 590.73C198.058 590.826 198.154 590.97 198.154 591.162C198.154 591.33 198.106 591.468 198.01 591.576C197.914 591.672 197.8 591.72 197.668 591.72C197.608 591.72 197.488 591.69 197.308 591.63C197.14 591.57 196.978 591.54 196.822 591.54C196.378 591.54 195.934 591.714 195.49 592.062C195.058 592.398 194.698 592.836 194.41 593.376C194.134 593.916 193.996 594.462 193.996 595.014V599.46C193.996 599.616 193.942 599.748 193.834 599.856C193.738 599.952 193.612 600 193.456 600C193.3 600 193.168 599.952 193.06 599.856C192.964 599.748 192.916 599.616 192.916 599.46V591.396C192.916 591.24 192.964 591.114 193.06 591.018C193.168 590.91 193.3 590.856 193.456 590.856C193.612 590.856 193.738 590.91 193.834 591.018C193.942 591.114 193.996 591.24 193.996 591.396V592.98C194.272 592.296 194.686 591.732 195.238 591.288C195.802 590.832 196.462 590.598 197.218 590.586ZM212.18 598.938C212.336 598.938 212.462 598.992 212.558 599.1C212.666 599.208 212.72 599.334 212.72 599.478C212.72 599.634 212.666 599.76 212.558 599.856C212.462 599.952 212.336 600 212.18 600H205.574C205.418 600 205.286 599.952 205.178 599.856C205.082 599.748 205.034 599.616 205.034 599.46V587.94C205.034 587.784 205.082 587.658 205.178 587.562C205.286 587.454 205.418 587.4 205.574 587.4H212.18C212.336 587.4 212.462 587.454 212.558 587.562C212.666 587.658 212.72 587.784 212.72 587.94C212.72 588.096 212.666 588.222 212.558 588.318C212.462 588.414 212.336 588.462 212.18 588.462H206.168V592.98H211.37C211.526 592.98 211.652 593.034 211.748 593.142C211.856 593.238 211.91 593.364 211.91 593.52C211.91 593.676 211.856 593.802 211.748 593.898C211.652 593.994 211.526 594.042 211.37 594.042H206.168V598.938H212.18ZM221.679 590.622C221.799 590.622 221.913 590.664 222.021 590.748C222.129 590.832 222.183 590.94 222.183 591.072C222.183 591.18 222.159 591.282 222.111 591.378L218.583 599.658C218.535 599.754 218.463 599.838 218.367 599.91C218.283 599.97 218.193 600 218.097 600C217.977 600.012 217.869 599.988 217.773 599.928C217.677 599.868 217.605 599.778 217.557 599.658L214.011 591.378C214.011 591.354 213.999 591.318 213.975 591.27C213.963 591.222 213.957 591.174 213.957 591.126C213.957 590.982 214.005 590.862 214.101 590.766C214.197 590.658 214.335 590.604 214.515 590.604C214.623 590.604 214.719 590.64 214.803 590.712C214.899 590.772 214.971 590.856 215.019 590.964L218.079 598.254L221.157 590.964C221.205 590.856 221.271 590.772 221.355 590.712C221.451 590.64 221.559 590.61 221.679 590.622ZM231.946 594.87C231.946 595.014 231.892 595.14 231.784 595.248C231.676 595.344 231.55 595.392 231.406 595.392H224.602C224.602 596.112 224.746 596.76 225.034 597.336C225.334 597.9 225.754 598.35 226.294 598.686C226.846 599.01 227.494 599.172 228.238 599.172C228.814 599.172 229.33 599.052 229.786 598.812C230.242 598.572 230.608 598.266 230.884 597.894C231.016 597.786 231.142 597.732 231.262 597.732C231.382 597.732 231.49 597.78 231.586 597.876C231.682 597.972 231.73 598.08 231.73 598.2C231.73 598.332 231.67 598.458 231.55 598.578C231.166 599.046 230.68 599.43 230.092 599.73C229.516 600.03 228.904 600.18 228.256 600.18C227.332 600.18 226.516 599.982 225.808 599.586C225.1 599.19 224.548 598.638 224.152 597.93C223.756 597.21 223.558 596.382 223.558 595.446C223.558 594.462 223.75 593.604 224.134 592.872C224.53 592.128 225.052 591.564 225.7 591.18C226.348 590.784 227.038 590.586 227.77 590.586C228.49 590.586 229.162 590.754 229.786 591.09C230.422 591.426 230.938 591.918 231.334 592.566C231.73 593.214 231.934 593.982 231.946 594.87ZM227.77 591.63C227.074 591.63 226.426 591.87 225.826 592.35C225.238 592.83 224.86 593.52 224.692 594.42H230.83V594.276C230.77 593.736 230.59 593.268 230.29 592.872C229.99 592.464 229.612 592.158 229.156 591.954C228.712 591.738 228.25 591.63 227.77 591.63ZM238.51 590.586C239.626 590.586 240.442 590.916 240.958 591.576C241.486 592.224 241.75 593.088 241.75 594.168V599.46C241.75 599.616 241.696 599.748 241.588 599.856C241.48 599.952 241.354 600 241.21 600C241.054 600 240.922 599.952 240.814 599.856C240.718 599.748 240.67 599.616 240.67 599.46V594.222C240.67 593.442 240.472 592.812 240.076 592.332C239.692 591.84 239.092 591.594 238.276 591.594C237.76 591.594 237.268 591.714 236.8 591.954C236.344 592.194 235.972 592.518 235.684 592.926C235.396 593.322 235.252 593.754 235.252 594.222V599.46C235.252 599.616 235.198 599.748 235.09 599.856C234.994 599.952 234.868 600 234.712 600C234.556 600 234.424 599.952 234.316 599.856C234.22 599.748 234.172 599.616 234.172 599.46V591.396C234.172 591.24 234.22 591.114 234.316 591.018C234.424 590.91 234.556 590.856 234.712 590.856C234.868 590.856 234.994 590.91 235.09 591.018C235.198 591.114 235.252 591.24 235.252 591.396V592.386C235.576 591.87 236.038 591.444 236.638 591.108C237.25 590.76 237.874 590.586 238.51 590.586ZM246.378 591.846V597.876C246.378 598.332 246.462 598.644 246.63 598.812C246.798 598.968 247.02 599.046 247.296 599.046C247.368 599.046 247.458 599.034 247.566 599.01C247.674 598.974 247.758 598.956 247.818 598.956C247.926 598.956 248.016 599.004 248.088 599.1C248.172 599.184 248.214 599.286 248.214 599.406C248.214 599.574 248.118 599.718 247.926 599.838C247.734 599.946 247.506 600 247.242 600C246.918 600 246.63 599.97 246.378 599.91C246.126 599.85 245.88 599.67 245.64 599.37C245.412 599.07 245.298 598.59 245.298 597.93V591.846H243.984C243.84 591.846 243.714 591.798 243.606 591.702C243.51 591.606 243.462 591.486 243.462 591.342C243.462 591.198 243.51 591.078 243.606 590.982C243.714 590.886 243.84 590.838 243.984 590.838H245.298V588.84C245.298 588.684 245.346 588.558 245.442 588.462C245.55 588.354 245.682 588.3 245.838 588.3C245.994 588.3 246.12 588.354 246.216 588.462C246.324 588.558 246.378 588.684 246.378 588.84V590.838H248.178C248.31 590.838 248.424 590.892 248.52 591C248.628 591.108 248.682 591.228 248.682 591.36C248.682 591.504 248.634 591.624 248.538 591.72C248.442 591.804 248.322 591.846 248.178 591.846H246.378ZM259.086 595.392C259.086 596.292 258.888 597.108 258.492 597.84C258.096 598.572 257.55 599.148 256.854 599.568C256.158 599.976 255.384 600.18 254.532 600.18C253.68 600.18 252.906 599.976 252.21 599.568C251.514 599.148 250.968 598.572 250.572 597.84C250.176 597.108 249.978 596.292 249.978 595.392C249.978 594.492 250.176 593.676 250.572 592.944C250.968 592.212 251.514 591.636 252.21 591.216C252.906 590.796 253.68 590.586 254.532 590.586C255.384 590.586 256.158 590.796 256.854 591.216C257.55 591.636 258.096 592.212 258.492 592.944C258.888 593.676 259.086 594.492 259.086 595.392ZM258.006 595.392C258.006 594.672 257.856 594.024 257.556 593.448C257.256 592.872 256.836 592.422 256.296 592.098C255.768 591.762 255.18 591.594 254.532 591.594C253.884 591.594 253.296 591.762 252.768 592.098C252.24 592.422 251.82 592.872 251.508 593.448C251.208 594.024 251.058 594.672 251.058 595.392C251.058 596.1 251.208 596.742 251.508 597.318C251.82 597.894 252.24 598.35 252.768 598.686C253.296 599.01 253.884 599.172 254.532 599.172C255.18 599.172 255.768 599.01 256.296 598.686C256.836 598.362 257.256 597.912 257.556 597.336C257.856 596.76 258.006 596.112 258.006 595.392Z" fill="white"/>
<rect opacity="0.3" x="64" y="411" width="247" height="107" rx="5" fill="#C4C4C4"/>
<path opacity="0.3" d="M125.969 458.4C126.125 458.4 126.245 458.448 126.329 458.544C126.425 458.64 126.473 458.76 126.473 458.904V470.424C126.473 470.604 126.419 470.748 126.311 470.856C126.203 470.952 126.071 471 125.915 471C125.831 471 125.747 470.982 125.663 470.946C125.591 470.91 125.531 470.868 125.483 470.82L117.761 460.416V470.514C117.761 470.646 117.707 470.76 117.599 470.856C117.503 470.952 117.389 471 117.257 471C117.113 471 116.993 470.952 116.897 470.856C116.801 470.76 116.753 470.646 116.753 470.514V458.94C116.753 458.772 116.801 458.64 116.897 458.544C117.005 458.448 117.131 458.4 117.275 458.4C117.467 458.4 117.611 458.466 117.707 458.598L125.465 469.056V458.904C125.465 458.76 125.513 458.64 125.609 458.544C125.705 458.448 125.825 458.4 125.969 458.4ZM139.244 470.28C139.268 470.376 139.28 470.448 139.28 470.496C139.28 470.652 139.226 470.778 139.118 470.874C139.01 470.97 138.884 471.018 138.74 471.018C138.62 471.018 138.512 470.988 138.416 470.928C138.332 470.856 138.266 470.766 138.218 470.658L136.868 467.364H131.018L129.686 470.658C129.59 470.898 129.428 471.018 129.2 471.018C129.032 471.018 128.906 470.976 128.822 470.892C128.738 470.808 128.69 470.694 128.678 470.55V470.496C128.678 470.424 128.684 470.37 128.696 470.334L133.448 458.706C133.544 458.466 133.724 458.346 133.988 458.346C134.108 458.346 134.21 458.382 134.294 458.454C134.39 458.514 134.462 458.598 134.51 458.706L139.244 470.28ZM131.432 466.302H136.436L133.916 460.146L131.432 466.302ZM131.666 457.122C131.534 457.122 131.426 457.074 131.342 456.978C131.27 456.882 131.234 456.738 131.234 456.546C131.234 456.45 131.24 456.378 131.252 456.33C131.336 455.958 131.522 455.664 131.81 455.448C132.098 455.232 132.434 455.124 132.818 455.124C133.034 455.124 133.256 455.178 133.484 455.286C133.724 455.382 133.994 455.526 134.294 455.718C134.558 455.874 134.762 455.988 134.906 456.06C135.062 456.132 135.2 456.168 135.32 456.168C135.488 456.168 135.62 456.108 135.716 455.988C135.824 455.856 135.89 455.682 135.914 455.466C135.902 455.334 135.932 455.226 136.004 455.142C136.076 455.046 136.178 454.998 136.31 454.998C136.454 454.998 136.562 455.052 136.634 455.16C136.718 455.256 136.76 455.394 136.76 455.574L136.742 455.772C136.67 456.168 136.502 456.48 136.238 456.708C135.986 456.936 135.668 457.05 135.284 457.05C134.948 457.05 134.468 456.858 133.844 456.474C133.568 456.318 133.352 456.204 133.196 456.132C133.04 456.06 132.896 456.024 132.764 456.024C132.596 456.024 132.446 456.084 132.314 456.204C132.194 456.312 132.11 456.486 132.062 456.726C132.062 456.858 132.02 456.96 131.936 457.032C131.864 457.092 131.774 457.122 131.666 457.122ZM152.735 464.7C152.735 465.936 152.477 467.046 151.961 468.03C151.445 469.014 150.731 469.788 149.819 470.352C148.907 470.904 147.869 471.18 146.705 471.18C145.541 471.18 144.503 470.904 143.591 470.352C142.679 469.788 141.965 469.014 141.449 468.03C140.933 467.046 140.675 465.936 140.675 464.7C140.675 463.452 140.933 462.336 141.449 461.352C141.965 460.368 142.679 459.6 143.591 459.048C144.503 458.496 145.541 458.22 146.705 458.22C147.869 458.22 148.907 458.496 149.819 459.048C150.731 459.6 151.445 460.368 151.961 461.352C152.477 462.336 152.735 463.452 152.735 464.7ZM151.583 464.7C151.583 463.656 151.373 462.726 150.953 461.91C150.545 461.082 149.969 460.44 149.225 459.984C148.493 459.528 147.653 459.3 146.705 459.3C145.757 459.3 144.911 459.528 144.167 459.984C143.435 460.44 142.859 461.082 142.439 461.91C142.031 462.726 141.827 463.656 141.827 464.7C141.827 465.744 142.031 466.68 142.439 467.508C142.859 468.324 143.435 468.96 144.167 469.416C144.911 469.872 145.757 470.1 146.705 470.1C147.653 470.1 148.493 469.872 149.225 469.416C149.969 468.96 150.545 468.324 150.953 467.508C151.373 466.68 151.583 465.744 151.583 464.7ZM165.336 458.4C166.488 458.4 167.454 458.688 168.234 459.264C169.026 459.828 169.614 460.59 169.998 461.55C170.394 462.498 170.592 463.548 170.592 464.7C170.592 465.888 170.394 466.956 169.998 467.904C169.614 468.852 169.026 469.608 168.234 470.172C167.454 470.724 166.488 471 165.336 471H160.746C160.59 471 160.458 470.952 160.35 470.856C160.254 470.748 160.206 470.616 160.206 470.46V458.94C160.206 458.784 160.254 458.658 160.35 458.562C160.458 458.454 160.59 458.4 160.746 458.4H165.336ZM165.156 469.938C166.596 469.938 167.67 469.458 168.378 468.498C169.086 467.526 169.44 466.26 169.44 464.7C169.44 463.728 169.29 462.852 168.99 462.072C168.69 461.28 168.216 460.65 167.568 460.182C166.932 459.702 166.128 459.462 165.156 459.462H161.34V469.938H165.156ZM174.277 470.442C174.265 470.598 174.205 470.73 174.097 470.838C173.989 470.946 173.857 471 173.701 471C173.533 471 173.395 470.952 173.287 470.856C173.191 470.748 173.143 470.61 173.143 470.442V458.958C173.143 458.79 173.197 458.658 173.305 458.562C173.413 458.454 173.551 458.4 173.719 458.4C173.875 458.4 174.007 458.454 174.115 458.562C174.223 458.67 174.277 458.802 174.277 458.958V470.442ZM181.045 471.18C180.181 471.18 179.413 471.036 178.741 470.748C178.081 470.46 177.439 470.01 176.815 469.398C176.671 469.278 176.599 469.134 176.599 468.966C176.599 468.822 176.653 468.69 176.761 468.57C176.881 468.45 177.013 468.39 177.157 468.39C177.301 468.39 177.433 468.45 177.553 468.57C178.489 469.602 179.659 470.118 181.063 470.118C181.927 470.118 182.641 469.914 183.205 469.506C183.781 469.098 184.069 468.564 184.069 467.904C184.069 467.388 183.925 466.962 183.637 466.626C183.361 466.278 182.995 465.996 182.539 465.78C182.083 465.564 181.501 465.342 180.793 465.114C180.025 464.886 179.377 464.634 178.849 464.358C178.333 464.082 177.913 463.716 177.589 463.26C177.265 462.792 177.103 462.204 177.103 461.496C177.103 460.86 177.271 460.296 177.607 459.804C177.955 459.312 178.435 458.928 179.047 458.652C179.671 458.364 180.385 458.22 181.189 458.22C181.921 458.22 182.605 458.346 183.241 458.598C183.889 458.838 184.405 459.186 184.789 459.642C184.969 459.846 185.059 460.02 185.059 460.164C185.059 460.296 184.999 460.422 184.879 460.542C184.759 460.65 184.627 460.704 184.483 460.704C184.363 460.704 184.261 460.662 184.177 460.578C183.853 460.194 183.421 459.882 182.881 459.642C182.341 459.402 181.777 459.282 181.189 459.282C180.313 459.282 179.599 459.48 179.047 459.876C178.495 460.26 178.219 460.788 178.219 461.46C178.219 462.156 178.483 462.69 179.011 463.062C179.539 463.434 180.295 463.776 181.279 464.088C182.131 464.34 182.827 464.598 183.367 464.862C183.907 465.126 184.345 465.504 184.681 465.996C185.029 466.476 185.203 467.112 185.203 467.904C185.203 468.516 185.023 469.074 184.663 469.578C184.315 470.07 183.823 470.46 183.187 470.748C182.563 471.036 181.849 471.18 181.045 471.18ZM192.557 458.4C193.217 458.4 193.811 458.556 194.339 458.868C194.867 459.168 195.275 459.594 195.563 460.146C195.863 460.686 196.013 461.298 196.013 461.982C196.013 462.666 195.863 463.29 195.563 463.854C195.275 464.418 194.867 464.862 194.339 465.186C193.811 465.51 193.217 465.672 192.557 465.672H188.831V470.46C188.831 470.616 188.777 470.748 188.669 470.856C188.573 470.952 188.447 471 188.291 471C188.135 471 188.003 470.952 187.895 470.856C187.799 470.748 187.751 470.616 187.751 470.46V458.94C187.751 458.784 187.799 458.658 187.895 458.562C188.003 458.454 188.135 458.4 188.291 458.4H192.557ZM192.557 464.628C193.253 464.628 193.817 464.376 194.249 463.872C194.681 463.368 194.897 462.738 194.897 461.982C194.897 461.238 194.681 460.632 194.249 460.164C193.817 459.696 193.253 459.462 192.557 459.462H188.831V464.628H192.557ZM209.705 464.7C209.705 465.936 209.447 467.046 208.931 468.03C208.415 469.014 207.701 469.788 206.789 470.352C205.877 470.904 204.839 471.18 203.675 471.18C202.511 471.18 201.473 470.904 200.561 470.352C199.649 469.788 198.935 469.014 198.419 468.03C197.903 467.046 197.645 465.936 197.645 464.7C197.645 463.452 197.903 462.336 198.419 461.352C198.935 460.368 199.649 459.6 200.561 459.048C201.473 458.496 202.511 458.22 203.675 458.22C204.839 458.22 205.877 458.496 206.789 459.048C207.701 459.6 208.415 460.368 208.931 461.352C209.447 462.336 209.705 463.452 209.705 464.7ZM208.553 464.7C208.553 463.656 208.343 462.726 207.923 461.91C207.515 461.082 206.939 460.44 206.195 459.984C205.463 459.528 204.623 459.3 203.675 459.3C202.727 459.3 201.881 459.528 201.137 459.984C200.405 460.44 199.829 461.082 199.409 461.91C199.001 462.726 198.797 463.656 198.797 464.7C198.797 465.744 199.001 466.68 199.409 467.508C199.829 468.324 200.405 468.96 201.137 469.416C201.881 469.872 202.727 470.1 203.675 470.1C204.623 470.1 205.463 469.872 206.195 469.416C206.939 468.96 207.515 468.324 207.923 467.508C208.343 466.68 208.553 465.744 208.553 464.7ZM221.471 458.4C221.627 458.4 221.747 458.448 221.831 458.544C221.927 458.64 221.975 458.76 221.975 458.904V470.424C221.975 470.604 221.921 470.748 221.812 470.856C221.705 470.952 221.573 471 221.417 471C221.333 471 221.249 470.982 221.165 470.946C221.093 470.91 221.033 470.868 220.985 470.82L213.263 460.416V470.514C213.263 470.646 213.209 470.76 213.101 470.856C213.005 470.952 212.891 471 212.759 471C212.615 471 212.495 470.952 212.399 470.856C212.303 470.76 212.255 470.646 212.255 470.514V458.94C212.255 458.772 212.303 458.64 212.399 458.544C212.507 458.448 212.633 458.4 212.777 458.4C212.969 458.4 213.113 458.466 213.208 458.598L220.967 469.056V458.904C220.967 458.76 221.015 458.64 221.111 458.544C221.207 458.448 221.327 458.4 221.471 458.4ZM226.484 470.442C226.472 470.598 226.412 470.73 226.304 470.838C226.196 470.946 226.064 471 225.908 471C225.74 471 225.602 470.952 225.494 470.856C225.398 470.748 225.35 470.61 225.35 470.442V458.958C225.35 458.79 225.404 458.658 225.512 458.562C225.62 458.454 225.758 458.4 225.926 458.4C226.082 458.4 226.214 458.454 226.322 458.562C226.43 458.67 226.484 458.802 226.484 458.958V470.442ZM225.98 457.572C225.872 457.572 225.788 457.542 225.728 457.482C225.668 457.422 225.638 457.344 225.638 457.248C225.638 457.152 225.698 457.044 225.818 456.924L227.42 455.682C227.576 455.55 227.75 455.484 227.942 455.484C228.098 455.484 228.224 455.538 228.32 455.646C228.428 455.742 228.482 455.868 228.482 456.024C228.482 456.264 228.368 456.45 228.14 456.582L226.376 457.464C226.208 457.536 226.076 457.572 225.98 457.572ZM238.958 458.382C239.114 458.382 239.246 458.436 239.354 458.544C239.462 458.64 239.516 458.754 239.516 458.886C239.516 458.97 239.498 459.06 239.462 459.156L234.656 470.64C234.608 470.748 234.536 470.838 234.44 470.91C234.344 470.97 234.242 471 234.134 471C234.026 471 233.924 470.97 233.828 470.91C233.744 470.85 233.678 470.766 233.63 470.658L228.842 459.192C228.806 459.12 228.788 459.024 228.788 458.904C228.788 458.748 228.842 458.622 228.95 458.526C229.058 458.43 229.178 458.382 229.31 458.382C229.562 458.382 229.742 458.514 229.85 458.778L234.188 469.146L238.454 458.742C238.514 458.634 238.586 458.55 238.67 458.49C238.766 458.418 238.862 458.382 238.958 458.382ZM248.967 469.938C249.123 469.938 249.249 469.992 249.345 470.1C249.453 470.208 249.507 470.334 249.507 470.478C249.507 470.634 249.453 470.76 249.345 470.856C249.249 470.952 249.123 471 248.967 471H242.361C242.205 471 242.073 470.952 241.965 470.856C241.869 470.748 241.821 470.616 241.821 470.46V458.94C241.821 458.784 241.869 458.658 241.965 458.562C242.073 458.454 242.205 458.4 242.361 458.4H248.967C249.123 458.4 249.249 458.454 249.345 458.562C249.453 458.658 249.507 458.784 249.507 458.94C249.507 459.096 249.453 459.222 249.345 459.318C249.249 459.414 249.123 459.462 248.967 459.462H242.955V463.98H248.157C248.313 463.98 248.439 464.034 248.535 464.142C248.643 464.238 248.697 464.364 248.697 464.52C248.697 464.676 248.643 464.802 248.535 464.898C248.439 464.994 248.313 465.042 248.157 465.042H242.955V469.938H248.967ZM259.017 469.938C259.173 469.938 259.299 469.986 259.395 470.082C259.503 470.178 259.557 470.304 259.557 470.46C259.557 470.616 259.503 470.748 259.395 470.856C259.299 470.952 259.173 471 259.017 471H252.591C252.435 471 252.303 470.952 252.195 470.856C252.099 470.748 252.051 470.616 252.051 470.46V458.94C252.051 458.784 252.105 458.658 252.213 458.562C252.321 458.454 252.459 458.4 252.627 458.4C252.783 458.4 252.915 458.454 253.023 458.562C253.131 458.658 253.185 458.784 253.185 458.94V469.938H259.017Z" fill="black"/>
<path opacity="0.3" d="M175.095 300.4C175.251 300.4 175.377 300.448 175.473 300.544C175.581 300.64 175.635 300.766 175.635 300.922C175.635 301.078 175.581 301.204 175.473 301.3C175.377 301.384 175.251 301.426 175.095 301.426H171.369V312.46C171.369 312.616 171.315 312.748 171.207 312.856C171.099 312.952 170.967 313 170.811 313C170.643 313 170.505 312.952 170.397 312.856C170.301 312.748 170.253 312.616 170.253 312.46V301.426H166.527C166.371 301.426 166.239 301.378 166.131 301.282C166.035 301.186 165.987 301.06 165.987 300.904C165.987 300.76 166.035 300.64 166.131 300.544C166.239 300.448 166.371 300.4 166.527 300.4H175.095ZM183.337 303.802C183.493 303.802 183.619 303.856 183.715 303.964C183.823 304.072 183.877 304.204 183.877 304.36V312.46C183.877 312.616 183.823 312.748 183.715 312.856C183.619 312.952 183.493 313 183.337 313C183.181 313 183.049 312.952 182.941 312.856C182.845 312.748 182.797 312.616 182.797 312.46V311.254C182.497 311.794 182.047 312.25 181.447 312.622C180.847 312.994 180.193 313.18 179.485 313.18C178.681 313.18 177.955 312.97 177.307 312.55C176.671 312.13 176.167 311.554 175.795 310.822C175.435 310.09 175.255 309.268 175.255 308.356C175.255 307.444 175.441 306.628 175.813 305.908C176.185 305.176 176.689 304.606 177.325 304.198C177.973 303.79 178.687 303.586 179.467 303.586C180.187 303.586 180.847 303.76 181.447 304.108C182.047 304.456 182.497 304.912 182.797 305.476V304.36C182.797 304.204 182.845 304.072 182.941 303.964C183.049 303.856 183.181 303.802 183.337 303.802ZM179.593 312.172C180.217 312.172 180.775 312.01 181.267 311.686C181.771 311.35 182.161 310.894 182.437 310.318C182.725 309.73 182.869 309.076 182.869 308.356C182.869 307.66 182.725 307.024 182.437 306.448C182.161 305.872 181.771 305.422 181.267 305.098C180.775 304.762 180.217 304.594 179.593 304.594C178.969 304.594 178.405 304.756 177.901 305.08C177.409 305.404 177.019 305.854 176.731 306.43C176.455 306.994 176.317 307.636 176.317 308.356C176.317 309.076 176.455 309.73 176.731 310.318C177.007 310.894 177.391 311.35 177.883 311.686C178.387 312.01 178.957 312.172 179.593 312.172ZM190.997 303.586C191.237 303.586 191.453 303.634 191.645 303.73C191.837 303.826 191.933 303.97 191.933 304.162C191.933 304.33 191.885 304.468 191.789 304.576C191.693 304.672 191.579 304.72 191.447 304.72C191.387 304.72 191.267 304.69 191.087 304.63C190.919 304.57 190.757 304.54 190.601 304.54C190.157 304.54 189.713 304.714 189.269 305.062C188.837 305.398 188.477 305.836 188.189 306.376C187.913 306.916 187.775 307.462 187.775 308.014V312.46C187.775 312.616 187.721 312.748 187.613 312.856C187.517 312.952 187.391 313 187.235 313C187.079 313 186.947 312.952 186.839 312.856C186.743 312.748 186.695 312.616 186.695 312.46V304.396C186.695 304.24 186.743 304.114 186.839 304.018C186.947 303.91 187.079 303.856 187.235 303.856C187.391 303.856 187.517 303.91 187.613 304.018C187.721 304.114 187.775 304.24 187.775 304.396V305.98C188.051 305.296 188.465 304.732 189.017 304.288C189.581 303.832 190.241 303.598 190.997 303.586ZM200.687 299.68C200.843 299.68 200.969 299.734 201.065 299.842C201.173 299.938 201.227 300.064 201.227 300.22V312.46C201.227 312.616 201.173 312.748 201.065 312.856C200.969 312.952 200.843 313 200.687 313C200.531 313 200.399 312.952 200.291 312.856C200.195 312.748 200.147 312.616 200.147 312.46V311.2C199.847 311.752 199.397 312.22 198.797 312.604C198.209 312.988 197.555 313.18 196.835 313.18C196.043 313.18 195.323 312.976 194.675 312.568C194.039 312.148 193.535 311.572 193.163 310.84C192.791 310.108 192.605 309.286 192.605 308.374C192.605 307.474 192.791 306.658 193.163 305.926C193.535 305.194 194.039 304.624 194.675 304.216C195.323 303.796 196.037 303.586 196.817 303.586C197.525 303.586 198.179 303.766 198.779 304.126C199.379 304.474 199.835 304.93 200.147 305.494V300.22C200.147 300.064 200.195 299.938 200.291 299.842C200.399 299.734 200.531 299.68 200.687 299.68ZM196.943 312.172C197.567 312.172 198.125 312.01 198.617 311.686C199.121 311.362 199.511 310.912 199.787 310.336C200.075 309.748 200.219 309.094 200.219 308.374C200.219 307.666 200.075 307.024 199.787 306.448C199.511 305.872 199.121 305.422 198.617 305.098C198.125 304.762 197.567 304.594 196.943 304.594C196.319 304.594 195.755 304.762 195.251 305.098C194.759 305.422 194.369 305.872 194.081 306.448C193.805 307.024 193.667 307.666 193.667 308.374C193.667 309.094 193.805 309.742 194.081 310.318C194.369 310.894 194.759 311.35 195.251 311.686C195.755 312.01 196.319 312.172 196.943 312.172ZM211.821 307.87C211.821 308.014 211.767 308.14 211.659 308.248C211.551 308.344 211.425 308.392 211.281 308.392H204.477C204.477 309.112 204.621 309.76 204.909 310.336C205.209 310.9 205.629 311.35 206.169 311.686C206.721 312.01 207.369 312.172 208.113 312.172C208.689 312.172 209.205 312.052 209.661 311.812C210.117 311.572 210.483 311.266 210.759 310.894C210.891 310.786 211.017 310.732 211.137 310.732C211.257 310.732 211.365 310.78 211.461 310.876C211.557 310.972 211.605 311.08 211.605 311.2C211.605 311.332 211.545 311.458 211.425 311.578C211.041 312.046 210.555 312.43 209.967 312.73C209.391 313.03 208.779 313.18 208.131 313.18C207.207 313.18 206.391 312.982 205.683 312.586C204.975 312.19 204.423 311.638 204.027 310.93C203.631 310.21 203.433 309.382 203.433 308.446C203.433 307.462 203.625 306.604 204.009 305.872C204.405 305.128 204.927 304.564 205.575 304.18C206.223 303.784 206.913 303.586 207.645 303.586C208.365 303.586 209.037 303.754 209.661 304.09C210.297 304.426 210.813 304.918 211.209 305.566C211.605 306.214 211.809 306.982 211.821 307.87ZM207.645 304.63C206.949 304.63 206.301 304.87 205.701 305.35C205.113 305.83 204.735 306.52 204.567 307.42H210.705V307.276C210.645 306.736 210.465 306.268 210.165 305.872C209.865 305.464 209.487 305.158 209.031 304.954C208.587 304.738 208.125 304.63 207.645 304.63Z" fill="black"/>
<path opacity="0.3" d="M172.081 148.4C172.225 148.4 172.345 148.454 172.441 148.562C172.549 148.658 172.603 148.784 172.603 148.94V160.46C172.603 160.616 172.549 160.748 172.441 160.856C172.333 160.952 172.201 161 172.045 161C171.877 161 171.739 160.952 171.631 160.856C171.523 160.748 171.469 160.616 171.469 160.46V150.56L167.239 156.968C167.119 157.124 166.981 157.196 166.825 157.184H166.789C166.645 157.184 166.513 157.112 166.393 156.968L162.163 150.524V160.46C162.163 160.616 162.109 160.748 162.001 160.856C161.905 160.952 161.779 161 161.623 161C161.467 161 161.341 160.952 161.245 160.856C161.149 160.748 161.101 160.616 161.101 160.46V148.94C161.101 148.796 161.149 148.67 161.245 148.562C161.353 148.454 161.485 148.4 161.641 148.4C161.725 148.4 161.815 148.424 161.911 148.472C162.007 148.508 162.079 148.562 162.127 148.634L166.843 155.708L171.595 148.634C171.727 148.454 171.889 148.376 172.081 148.4ZM183.19 151.802C183.346 151.802 183.472 151.856 183.568 151.964C183.676 152.072 183.73 152.204 183.73 152.36V160.46C183.73 160.616 183.676 160.748 183.568 160.856C183.472 160.952 183.346 161 183.19 161C183.034 161 182.902 160.952 182.794 160.856C182.698 160.748 182.65 160.616 182.65 160.46V159.254C182.35 159.794 181.9 160.25 181.3 160.622C180.7 160.994 180.046 161.18 179.338 161.18C178.534 161.18 177.808 160.97 177.16 160.55C176.524 160.13 176.02 159.554 175.648 158.822C175.288 158.09 175.108 157.268 175.108 156.356C175.108 155.444 175.294 154.628 175.666 153.908C176.038 153.176 176.542 152.606 177.178 152.198C177.826 151.79 178.54 151.586 179.32 151.586C180.04 151.586 180.7 151.76 181.3 152.108C181.9 152.456 182.35 152.912 182.65 153.476V152.36C182.65 152.204 182.698 152.072 182.794 151.964C182.902 151.856 183.034 151.802 183.19 151.802ZM179.446 160.172C180.07 160.172 180.628 160.01 181.12 159.686C181.624 159.35 182.014 158.894 182.29 158.318C182.578 157.73 182.722 157.076 182.722 156.356C182.722 155.66 182.578 155.024 182.29 154.448C182.014 153.872 181.624 153.422 181.12 153.098C180.628 152.762 180.07 152.594 179.446 152.594C178.822 152.594 178.258 152.756 177.754 153.08C177.262 153.404 176.872 153.854 176.584 154.43C176.308 154.994 176.17 155.636 176.17 156.356C176.17 157.076 176.308 157.73 176.584 158.318C176.86 158.894 177.244 159.35 177.736 159.686C178.24 160.01 178.81 160.172 179.446 160.172ZM190.886 151.586C192.002 151.586 192.818 151.916 193.334 152.576C193.862 153.224 194.126 154.088 194.126 155.168V160.46C194.126 160.616 194.072 160.748 193.964 160.856C193.856 160.952 193.73 161 193.586 161C193.43 161 193.298 160.952 193.19 160.856C193.094 160.748 193.046 160.616 193.046 160.46V155.222C193.046 154.442 192.848 153.812 192.452 153.332C192.068 152.84 191.468 152.594 190.652 152.594C190.136 152.594 189.644 152.714 189.176 152.954C188.72 153.194 188.348 153.518 188.06 153.926C187.772 154.322 187.628 154.754 187.628 155.222V160.46C187.628 160.616 187.574 160.748 187.466 160.856C187.37 160.952 187.244 161 187.088 161C186.932 161 186.8 160.952 186.692 160.856C186.596 160.748 186.548 160.616 186.548 160.46V152.396C186.548 152.24 186.596 152.114 186.692 152.018C186.8 151.91 186.932 151.856 187.088 151.856C187.244 151.856 187.37 151.91 187.466 152.018C187.574 152.114 187.628 152.24 187.628 152.396V153.386C187.952 152.87 188.414 152.444 189.014 152.108C189.626 151.76 190.25 151.586 190.886 151.586ZM201.148 151.73C202.228 151.73 203.032 152.072 203.56 152.756C204.088 153.428 204.352 154.298 204.352 155.366V160.46C204.352 160.616 204.298 160.748 204.19 160.856C204.094 160.952 203.968 161 203.812 161C203.656 161 203.524 160.952 203.416 160.856C203.32 160.748 203.272 160.616 203.272 160.46V155.366C203.272 154.586 203.086 153.956 202.714 153.476C202.342 152.984 201.76 152.738 200.968 152.738C200.464 152.738 199.984 152.858 199.528 153.098C199.084 153.338 198.724 153.662 198.448 154.07C198.172 154.466 198.034 154.898 198.034 155.366V160.46C198.034 160.616 197.98 160.748 197.872 160.856C197.776 160.952 197.65 161 197.494 161C197.338 161 197.206 160.952 197.098 160.856C197.002 160.748 196.954 160.616 196.954 160.46V148.22C196.954 148.064 197.002 147.938 197.098 147.842C197.206 147.734 197.338 147.68 197.494 147.68C197.65 147.68 197.776 147.734 197.872 147.842C197.98 147.938 198.034 148.064 198.034 148.22V153.494C198.358 152.978 198.808 152.558 199.384 152.234C199.96 151.898 200.548 151.73 201.148 151.73ZM214.655 151.802C214.811 151.802 214.937 151.856 215.033 151.964C215.141 152.072 215.195 152.204 215.195 152.36V160.46C215.195 160.616 215.141 160.748 215.033 160.856C214.937 160.952 214.811 161 214.655 161C214.499 161 214.367 160.952 214.259 160.856C214.163 160.748 214.115 160.616 214.115 160.46V159.254C213.815 159.794 213.365 160.25 212.765 160.622C212.165 160.994 211.511 161.18 210.803 161.18C209.999 161.18 209.273 160.97 208.625 160.55C207.989 160.13 207.485 159.554 207.113 158.822C206.753 158.09 206.573 157.268 206.573 156.356C206.573 155.444 206.759 154.628 207.131 153.908C207.503 153.176 208.007 152.606 208.643 152.198C209.291 151.79 210.005 151.586 210.785 151.586C211.505 151.586 212.165 151.76 212.765 152.108C213.365 152.456 213.815 152.912 214.115 153.476V152.36C214.115 152.204 214.163 152.072 214.259 151.964C214.367 151.856 214.499 151.802 214.655 151.802ZM210.911 160.172C211.535 160.172 212.093 160.01 212.585 159.686C213.089 159.35 213.479 158.894 213.755 158.318C214.043 157.73 214.187 157.076 214.187 156.356C214.187 155.66 214.043 155.024 213.755 154.448C213.479 153.872 213.089 153.422 212.585 153.098C212.093 152.762 211.535 152.594 210.911 152.594C210.287 152.594 209.723 152.756 209.219 153.08C208.727 153.404 208.337 153.854 208.049 154.43C207.773 154.994 207.635 155.636 207.635 156.356C207.635 157.076 207.773 157.73 208.049 158.318C208.325 158.894 208.709 159.35 209.201 159.686C209.705 160.01 210.275 160.172 210.911 160.172ZM208.697 150.542C208.409 150.542 208.265 150.38 208.265 150.056L208.301 149.768C208.385 149.384 208.571 149.084 208.859 148.868C209.159 148.652 209.513 148.544 209.921 148.544C210.125 148.544 210.341 148.598 210.569 148.706C210.797 148.802 211.055 148.946 211.343 149.138C211.595 149.294 211.793 149.408 211.937 149.48C212.081 149.552 212.219 149.588 212.351 149.588C212.699 149.588 212.891 149.36 212.927 148.904C212.915 148.772 212.945 148.664 213.017 148.58C213.101 148.496 213.209 148.454 213.341 148.454C213.653 148.454 213.809 148.634 213.809 148.994C213.809 149.09 213.803 149.162 213.791 149.21C213.719 149.606 213.545 149.918 213.269 150.146C213.005 150.374 212.657 150.488 212.225 150.488C212.045 150.488 211.853 150.446 211.649 150.362C211.445 150.266 211.199 150.128 210.911 149.948C210.623 149.78 210.395 149.66 210.227 149.588C210.071 149.516 209.927 149.48 209.795 149.48C209.435 149.48 209.207 149.702 209.111 150.146C209.111 150.278 209.069 150.38 208.985 150.452C208.913 150.512 208.817 150.542 208.697 150.542Z" fill="black"/>
<g filter="url(#filter1_d)">
<rect x="344" y="81" width="267" height="455" rx="5" fill="white"/>
</g>
<rect x="354" y="226" width="247" height="10" rx="5" fill="#E9E9E9"/>
<rect x="354" y="381" width="247" height="10" rx="5" fill="#E9E9E9"/>
<rect opacity="0.3" x="354" y="410" width="247" height="107" rx="5" fill="#C4C4C4"/>
<g filter="url(#filter2_d)">
<rect x="-236" y="81" width="267" height="455" rx="5" fill="white"/>
</g>
<rect x="-226" y="226" width="247" height="10" rx="5" fill="#E9E9E9"/>
<rect x="-226" y="381" width="247" height="10" rx="5" fill="#E9E9E9"/>
<rect opacity="0.3" x="-226" y="410" width="247" height="107" rx="5" fill="#C4C4C4"/>
<path d="M64.2897 62.84C64.4497 62.84 64.583 62.9 64.6897 63.02C64.8097 63.1267 64.8697 63.26 64.8697 63.42C64.8697 63.5933 64.8097 63.7333 64.6897 63.84C64.583 63.9467 64.4497 64 64.2897 64H56.7897C56.603 64 56.4497 63.9467 56.3297 63.84C56.2097 63.7333 56.1497 63.5867 56.1497 63.4C56.1497 63.2533 56.203 63.1133 56.3097 62.98L60.9297 57.88C61.6764 57.08 62.2297 56.3667 62.5897 55.74C62.9497 55.1 63.1297 54.4733 63.1297 53.86C63.1297 52.9533 62.8564 52.24 62.3097 51.72C61.763 51.2 61.003 50.94 60.0297 50.94C59.3764 50.94 58.7897 51.1 58.2697 51.42C57.763 51.7267 57.383 52.2 57.1297 52.84C56.983 53.08 56.8097 53.2 56.6097 53.2C56.463 53.2 56.323 53.1467 56.1897 53.04C56.0564 52.9333 55.9897 52.8133 55.9897 52.68C55.9897 52.6 56.0164 52.5067 56.0697 52.4C56.123 52.2933 56.1897 52.1867 56.2697 52.08C56.6164 51.36 57.1364 50.8 57.8297 50.4C58.523 50 59.283 49.8 60.1097 49.8C61.4564 49.8 62.5097 50.1667 63.2697 50.9C64.0297 51.6333 64.4097 52.5933 64.4097 53.78C64.4097 54.5133 64.2097 55.2667 63.8097 56.04C63.4097 56.8 62.7497 57.6867 61.8297 58.7L58.1497 62.84H64.2897ZM75.6373 62.84C75.7973 62.84 75.9307 62.9 76.0373 63.02C76.1573 63.1267 76.2173 63.26 76.2173 63.42C76.2173 63.5933 76.1573 63.7333 76.0373 63.84C75.9307 63.9467 75.7973 64 75.6373 64H68.1373C67.9507 64 67.7973 63.9467 67.6773 63.84C67.5573 63.7333 67.4973 63.5867 67.4973 63.4C67.4973 63.2533 67.5507 63.1133 67.6573 62.98L72.2773 57.88C73.024 57.08 73.5773 56.3667 73.9373 55.74C74.2973 55.1 74.4773 54.4733 74.4773 53.86C74.4773 52.9533 74.204 52.24 73.6573 51.72C73.1107 51.2 72.3507 50.94 71.3773 50.94C70.724 50.94 70.1373 51.1 69.6173 51.42C69.1107 51.7267 68.7307 52.2 68.4773 52.84C68.3307 53.08 68.1573 53.2 67.9573 53.2C67.8107 53.2 67.6707 53.1467 67.5373 53.04C67.404 52.9333 67.3373 52.8133 67.3373 52.68C67.3373 52.6 67.364 52.5067 67.4173 52.4C67.4707 52.2933 67.5373 52.1867 67.6173 52.08C67.964 51.36 68.484 50.8 69.1773 50.4C69.8707 50 70.6307 49.8 71.4573 49.8C72.804 49.8 73.8573 50.1667 74.6173 50.9C75.3773 51.6333 75.7573 52.5933 75.7573 53.78C75.7573 54.5133 75.5573 55.2667 75.1573 56.04C74.7573 56.8 74.0973 57.6867 73.1773 58.7L69.4973 62.84H75.6373ZM92.4738 49.2C92.6471 49.2 92.7871 49.26 92.8938 49.38C93.0138 49.4867 93.0738 49.6267 93.0738 49.8V63.4C93.0738 63.5733 93.0138 63.72 92.8938 63.84C92.7871 63.9467 92.6471 64 92.4738 64C92.3004 64 92.1538 63.9467 92.0338 63.84C91.9271 63.72 91.8738 63.5733 91.8738 63.4V62C91.5404 62.6133 91.0404 63.1333 90.3738 63.56C89.7204 63.9867 88.9938 64.2 88.1938 64.2C87.3138 64.2 86.5138 63.9733 85.7938 63.52C85.0871 63.0533 84.5271 62.4133 84.1138 61.6C83.7004 60.7867 83.4938 59.8733 83.4938 58.86C83.4938 57.86 83.7004 56.9533 84.1138 56.14C84.5271 55.3267 85.0871 54.6933 85.7938 54.24C86.5138 53.7733 87.3071 53.54 88.1738 53.54C88.9604 53.54 89.6871 53.74 90.3538 54.14C91.0204 54.5267 91.5271 55.0333 91.8738 55.66V49.8C91.8738 49.6267 91.9271 49.4867 92.0338 49.38C92.1538 49.26 92.3004 49.2 92.4738 49.2ZM88.3138 63.08C89.0071 63.08 89.6271 62.9 90.1738 62.54C90.7338 62.18 91.1671 61.68 91.4738 61.04C91.7938 60.3867 91.9538 59.66 91.9538 58.86C91.9538 58.0733 91.7938 57.36 91.4738 56.72C91.1671 56.08 90.7338 55.58 90.1738 55.22C89.6271 54.8467 89.0071 54.66 88.3138 54.66C87.6204 54.66 86.9938 54.8467 86.4338 55.22C85.8871 55.58 85.4538 56.08 85.1338 56.72C84.8271 57.36 84.6738 58.0733 84.6738 58.86C84.6738 59.66 84.8271 60.38 85.1338 61.02C85.4538 61.66 85.8871 62.1667 86.4338 62.54C86.9938 62.9 87.6204 63.08 88.3138 63.08ZM104.845 58.3C104.845 58.46 104.785 58.6 104.665 58.72C104.545 58.8267 104.405 58.88 104.245 58.88H96.685C96.685 59.68 96.845 60.4 97.165 61.04C97.4983 61.6667 97.965 62.1667 98.565 62.54C99.1783 62.9 99.8983 63.08 100.725 63.08C101.365 63.08 101.938 62.9467 102.445 62.68C102.952 62.4133 103.358 62.0733 103.665 61.66C103.812 61.54 103.952 61.48 104.085 61.48C104.218 61.48 104.338 61.5333 104.445 61.64C104.552 61.7467 104.605 61.8667 104.605 62C104.605 62.1467 104.538 62.2867 104.405 62.42C103.978 62.94 103.438 63.3667 102.785 63.7C102.145 64.0333 101.465 64.2 100.745 64.2C99.7183 64.2 98.8117 63.98 98.025 63.54C97.2383 63.1 96.625 62.4867 96.185 61.7C95.745 60.9 95.525 59.98 95.525 58.94C95.525 57.8467 95.7383 56.8933 96.165 56.08C96.605 55.2533 97.185 54.6267 97.905 54.2C98.625 53.76 99.3917 53.54 100.205 53.54C101.005 53.54 101.752 53.7267 102.445 54.1C103.152 54.4733 103.725 55.02 104.165 55.74C104.605 56.46 104.832 57.3133 104.845 58.3ZM100.205 54.7C99.4317 54.7 98.7117 54.9667 98.045 55.5C97.3917 56.0333 96.9717 56.8 96.785 57.8H103.605V57.64C103.538 57.04 103.338 56.52 103.005 56.08C102.672 55.6267 102.252 55.2867 101.745 55.06C101.252 54.82 100.738 54.7 100.205 54.7ZM123.327 50C123.5 50 123.634 50.0533 123.727 50.16C123.834 50.2667 123.887 50.4 123.887 50.56V63.36C123.887 63.56 123.827 63.72 123.707 63.84C123.587 63.9467 123.44 64 123.267 64C123.174 64 123.08 63.98 122.987 63.94C122.907 63.9 122.84 63.8533 122.787 63.8L114.207 52.24V63.46C114.207 63.6067 114.147 63.7333 114.027 63.84C113.92 63.9467 113.794 64 113.647 64C113.487 64 113.354 63.9467 113.247 63.84C113.14 63.7333 113.087 63.6067 113.087 63.46V50.6C113.087 50.4133 113.14 50.2667 113.247 50.16C113.367 50.0533 113.507 50 113.667 50C113.88 50 114.04 50.0733 114.147 50.22L122.767 61.84V50.56C122.767 50.4 122.82 50.2667 122.927 50.16C123.034 50.0533 123.167 50 123.327 50ZM136.778 58.88C136.778 59.88 136.558 60.7867 136.118 61.6C135.678 62.4133 135.071 63.0533 134.298 63.52C133.524 63.9733 132.664 64.2 131.718 64.2C130.771 64.2 129.911 63.9733 129.138 63.52C128.364 63.0533 127.758 62.4133 127.318 61.6C126.878 60.7867 126.658 59.88 126.658 58.88C126.658 57.88 126.878 56.9733 127.318 56.16C127.758 55.3467 128.364 54.7067 129.138 54.24C129.911 53.7733 130.771 53.54 131.718 53.54C132.664 53.54 133.524 53.7733 134.298 54.24C135.071 54.7067 135.678 55.3467 136.118 56.16C136.558 56.9733 136.778 57.88 136.778 58.88ZM135.578 58.88C135.578 58.08 135.411 57.36 135.078 56.72C134.744 56.08 134.278 55.58 133.678 55.22C133.091 54.8467 132.438 54.66 131.718 54.66C130.998 54.66 130.344 54.8467 129.758 55.22C129.171 55.58 128.704 56.08 128.358 56.72C128.024 57.36 127.858 58.08 127.858 58.88C127.858 59.6667 128.024 60.38 128.358 61.02C128.704 61.66 129.171 62.1667 129.758 62.54C130.344 62.9 130.998 63.08 131.718 63.08C132.438 63.08 133.091 62.9 133.678 62.54C134.278 62.18 134.744 61.68 135.078 61.04C135.411 60.4 135.578 59.68 135.578 58.88ZM146.855 53.58C146.988 53.58 147.115 53.6267 147.235 53.72C147.355 53.8133 147.415 53.9333 147.415 54.08C147.415 54.2 147.388 54.3133 147.335 54.42L143.415 63.62C143.361 63.7267 143.281 63.82 143.175 63.9C143.081 63.9667 142.981 64 142.875 64C142.741 64.0133 142.621 63.9867 142.515 63.92C142.408 63.8533 142.328 63.7533 142.275 63.62L138.335 54.42C138.335 54.3933 138.321 54.3533 138.295 54.3C138.281 54.2467 138.275 54.1933 138.275 54.14C138.275 53.98 138.328 53.8467 138.435 53.74C138.541 53.62 138.695 53.56 138.895 53.56C139.015 53.56 139.121 53.6 139.215 53.68C139.321 53.7467 139.401 53.84 139.455 53.96L142.855 62.06L146.275 53.96C146.328 53.84 146.401 53.7467 146.495 53.68C146.601 53.6 146.721 53.5667 146.855 53.58ZM158.263 58.3C158.263 58.46 158.203 58.6 158.083 58.72C157.963 58.8267 157.823 58.88 157.663 58.88H150.103C150.103 59.68 150.263 60.4 150.583 61.04C150.916 61.6667 151.383 62.1667 151.983 62.54C152.596 62.9 153.316 63.08 154.143 63.08C154.783 63.08 155.356 62.9467 155.863 62.68C156.37 62.4133 156.776 62.0733 157.083 61.66C157.23 61.54 157.37 61.48 157.503 61.48C157.636 61.48 157.756 61.5333 157.863 61.64C157.97 61.7467 158.023 61.8667 158.023 62C158.023 62.1467 157.956 62.2867 157.823 62.42C157.396 62.94 156.856 63.3667 156.203 63.7C155.563 64.0333 154.883 64.2 154.163 64.2C153.136 64.2 152.23 63.98 151.443 63.54C150.656 63.1 150.043 62.4867 149.603 61.7C149.163 60.9 148.943 59.98 148.943 58.94C148.943 57.8467 149.156 56.8933 149.583 56.08C150.023 55.2533 150.603 54.6267 151.323 54.2C152.043 53.76 152.81 53.54 153.623 53.54C154.423 53.54 155.17 53.7267 155.863 54.1C156.57 54.4733 157.143 55.02 157.583 55.74C158.023 56.46 158.25 57.3133 158.263 58.3ZM153.623 54.7C152.85 54.7 152.13 54.9667 151.463 55.5C150.81 56.0333 150.39 56.8 150.203 57.8H157.023V57.64C156.956 57.04 156.756 56.52 156.423 56.08C156.09 55.6267 155.67 55.2867 155.163 55.06C154.67 54.82 154.156 54.7 153.623 54.7ZM172.336 53.7C173.536 53.7 174.416 54.0733 174.976 54.82C175.55 55.5533 175.836 56.5267 175.836 57.74V63.4C175.836 63.5733 175.776 63.72 175.656 63.84C175.55 63.9467 175.41 64 175.236 64C175.063 64 174.916 63.9467 174.796 63.84C174.69 63.72 174.636 63.5733 174.636 63.4V57.8C174.636 56.92 174.423 56.2067 173.996 55.66C173.583 55.1 172.936 54.82 172.056 54.82C171.496 54.82 170.963 54.9533 170.456 55.22C169.963 55.4867 169.563 55.8533 169.256 56.32C168.95 56.7733 168.796 57.2667 168.796 57.8V63.4C168.796 63.5733 168.736 63.72 168.616 63.84C168.51 63.9467 168.37 64 168.196 64C168.023 64 167.876 63.9467 167.756 63.84C167.65 63.72 167.596 63.5733 167.596 63.4V57.74C167.596 56.8733 167.396 56.1733 166.996 55.64C166.596 55.0933 165.97 54.82 165.116 54.82C164.57 54.82 164.05 54.9533 163.556 55.22C163.076 55.4867 162.683 55.8467 162.376 56.3C162.083 56.74 161.936 57.22 161.936 57.74V63.4C161.936 63.5733 161.876 63.72 161.756 63.84C161.65 63.9467 161.51 64 161.336 64C161.163 64 161.016 63.9467 160.896 63.84C160.79 63.72 160.736 63.5733 160.736 63.4V54.44C160.736 54.2667 160.79 54.1267 160.896 54.02C161.016 53.9 161.163 53.84 161.336 53.84C161.51 53.84 161.65 53.9 161.756 54.02C161.876 54.1267 161.936 54.2667 161.936 54.44V55.6C162.296 55.0533 162.783 54.6 163.396 54.24C164.01 53.88 164.656 53.7 165.336 53.7C166.11 53.7 166.776 53.8867 167.336 54.26C167.896 54.6333 168.296 55.18 168.536 55.9C168.816 55.3133 169.33 54.8 170.076 54.36C170.823 53.92 171.576 53.7 172.336 53.7ZM183.838 53.54C184.718 53.54 185.518 53.7667 186.238 54.22C186.958 54.6733 187.518 55.3067 187.918 56.12C188.332 56.92 188.538 57.8267 188.538 58.84C188.538 59.84 188.332 60.7533 187.918 61.58C187.518 62.3933 186.958 63.0333 186.238 63.5C185.532 63.9667 184.738 64.2 183.858 64.2C183.098 64.2 182.392 64.0133 181.738 63.64C181.098 63.2533 180.578 62.7467 180.178 62.12V63.44C180.178 63.6133 180.118 63.76 179.998 63.88C179.892 64 179.752 64.06 179.578 64.06C179.405 64.06 179.258 64 179.138 63.88C179.032 63.76 178.978 63.6133 178.978 63.44V49.82C178.978 49.6467 179.032 49.5067 179.138 49.4C179.258 49.28 179.405 49.22 179.578 49.22C179.752 49.22 179.892 49.28 179.998 49.4C180.118 49.5067 180.178 49.6467 180.178 49.82V55.72C180.538 55.0667 181.045 54.54 181.698 54.14C182.352 53.74 183.065 53.54 183.838 53.54ZM183.738 63.08C184.432 63.08 185.052 62.8933 185.598 62.52C186.158 62.1467 186.592 61.64 186.898 61C187.218 60.3467 187.378 59.6267 187.378 58.84C187.378 58.04 187.218 57.3267 186.898 56.7C186.592 56.06 186.158 55.56 185.598 55.2C185.052 54.84 184.432 54.66 183.738 54.66C183.032 54.66 182.398 54.84 181.838 55.2C181.278 55.5467 180.845 56.04 180.538 56.68C180.232 57.32 180.078 58.04 180.078 58.84C180.078 59.64 180.232 60.3667 180.538 61.02C180.858 61.66 181.292 62.1667 181.838 62.54C182.398 62.9 183.032 63.08 183.738 63.08ZM195.79 53.54C196.056 53.54 196.296 53.5933 196.51 53.7C196.723 53.8067 196.83 53.9667 196.83 54.18C196.83 54.3667 196.776 54.52 196.67 54.64C196.563 54.7467 196.436 54.8 196.29 54.8C196.223 54.8 196.09 54.7667 195.89 54.7C195.703 54.6333 195.523 54.6 195.35 54.6C194.856 54.6 194.363 54.7933 193.87 55.18C193.39 55.5533 192.99 56.04 192.67 56.64C192.363 57.24 192.21 57.8467 192.21 58.46V63.4C192.21 63.5733 192.15 63.72 192.03 63.84C191.923 63.9467 191.783 64 191.61 64C191.436 64 191.29 63.9467 191.17 63.84C191.063 63.72 191.01 63.5733 191.01 63.4V54.44C191.01 54.2667 191.063 54.1267 191.17 54.02C191.29 53.9 191.436 53.84 191.61 53.84C191.783 53.84 191.923 53.9 192.03 54.02C192.15 54.1267 192.21 54.2667 192.21 54.44V56.2C192.516 55.44 192.976 54.8133 193.59 54.32C194.216 53.8133 194.95 53.5533 195.79 53.54ZM207.696 58.88C207.696 59.88 207.476 60.7867 207.036 61.6C206.596 62.4133 205.989 63.0533 205.216 63.52C204.442 63.9733 203.582 64.2 202.636 64.2C201.689 64.2 200.829 63.9733 200.056 63.52C199.282 63.0533 198.676 62.4133 198.236 61.6C197.796 60.7867 197.576 59.88 197.576 58.88C197.576 57.88 197.796 56.9733 198.236 56.16C198.676 55.3467 199.282 54.7067 200.056 54.24C200.829 53.7733 201.689 53.54 202.636 53.54C203.582 53.54 204.442 53.7733 205.216 54.24C205.989 54.7067 206.596 55.3467 207.036 56.16C207.476 56.9733 207.696 57.88 207.696 58.88ZM206.496 58.88C206.496 58.08 206.329 57.36 205.996 56.72C205.662 56.08 205.196 55.58 204.596 55.22C204.009 54.8467 203.356 54.66 202.636 54.66C201.916 54.66 201.262 54.8467 200.676 55.22C200.089 55.58 199.622 56.08 199.276 56.72C198.942 57.36 198.776 58.08 198.776 58.88C198.776 59.6667 198.942 60.38 199.276 61.02C199.622 61.66 200.089 62.1667 200.676 62.54C201.262 62.9 201.916 63.08 202.636 63.08C203.356 63.08 204.009 62.9 204.596 62.54C205.196 62.18 205.662 61.68 205.996 61.04C206.329 60.4 206.496 59.68 206.496 58.88Z" fill="white"/>
<rect x="66" y="98" width="245" height="113" rx="5" fill="#F883BA"/>
<path d="M85.4199 121.3V124.82H89.7399C90.0866 124.82 90.3733 124.933 90.5999 125.16C90.8399 125.373 90.9599 125.653 90.9599 126C90.9599 126.293 90.8399 126.553 90.5999 126.78C90.3733 127.007 90.0866 127.12 89.7399 127.12H85.4199V131.78C85.4199 132.127 85.2933 132.42 85.0399 132.66C84.7999 132.887 84.5133 133 84.1799 133C83.8066 133 83.4999 132.887 83.2599 132.66C83.0333 132.433 82.9199 132.14 82.9199 131.78V120.22C82.9199 119.873 83.0333 119.587 83.2599 119.36C83.4999 119.12 83.7933 119 84.1399 119H90.6399C90.9866 119 91.2733 119.113 91.4999 119.34C91.7399 119.553 91.8599 119.833 91.8599 120.18C91.8599 120.473 91.7399 120.733 91.4999 120.96C91.2733 121.187 90.9866 121.3 90.6399 121.3H85.4199ZM103.257 127.4C103.244 127.72 103.117 127.98 102.877 128.18C102.637 128.38 102.357 128.48 102.037 128.48H95.4374C95.5974 129.267 95.9641 129.887 96.5374 130.34C97.1108 130.78 97.7574 131 98.4774 131C99.0241 131 99.4508 130.953 99.7574 130.86C100.064 130.753 100.304 130.647 100.477 130.54C100.664 130.42 100.791 130.34 100.857 130.3C101.097 130.18 101.324 130.12 101.537 130.12C101.817 130.12 102.057 130.22 102.257 130.42C102.457 130.62 102.557 130.853 102.557 131.12C102.557 131.48 102.371 131.807 101.997 132.1C101.624 132.407 101.124 132.667 100.497 132.88C99.8708 133.093 99.2374 133.2 98.5974 133.2C97.4774 133.2 96.4974 132.967 95.6574 132.5C94.8308 132.033 94.1908 131.393 93.7374 130.58C93.2841 129.753 93.0574 128.827 93.0574 127.8C93.0574 126.653 93.2974 125.647 93.7774 124.78C94.2574 123.913 94.8908 123.253 95.6774 122.8C96.4641 122.333 97.3041 122.1 98.1974 122.1C99.0774 122.1 99.9041 122.34 100.677 122.82C101.464 123.3 102.091 123.947 102.557 124.76C103.024 125.573 103.257 126.453 103.257 127.4ZM98.1974 124.3C96.6508 124.3 95.7374 125.027 95.4574 126.48H100.697V126.34C100.644 125.78 100.371 125.3 99.8774 124.9C99.3841 124.5 98.8241 124.3 98.1974 124.3ZM104.639 131.34C104.519 131.18 104.459 130.98 104.459 130.74C104.459 130.393 104.632 130.1 104.979 129.86C105.166 129.74 105.359 129.68 105.559 129.68C105.839 129.68 106.106 129.807 106.359 130.06C106.759 130.473 107.172 130.78 107.599 130.98C108.039 131.18 108.566 131.28 109.179 131.28C110.219 131.24 110.739 130.847 110.739 130.1C110.739 129.713 110.559 129.42 110.199 129.22C109.852 129.02 109.306 128.82 108.559 128.62C107.786 128.407 107.152 128.193 106.659 127.98C106.179 127.767 105.759 127.447 105.399 127.02C105.052 126.58 104.879 125.993 104.879 125.26C104.879 124.62 105.059 124.067 105.419 123.6C105.792 123.12 106.272 122.753 106.859 122.5C107.459 122.233 108.092 122.1 108.759 122.1C109.439 122.1 110.119 122.227 110.799 122.48C111.479 122.733 112.012 123.107 112.399 123.6C112.572 123.813 112.659 124.053 112.659 124.32C112.659 124.627 112.532 124.88 112.279 125.08C112.092 125.227 111.879 125.3 111.639 125.3C111.346 125.3 111.106 125.207 110.919 125.02C110.679 124.727 110.366 124.493 109.979 124.32C109.606 124.147 109.179 124.06 108.699 124.06C107.686 124.06 107.179 124.427 107.179 125.16C107.179 125.453 107.272 125.693 107.459 125.88C107.646 126.053 107.879 126.193 108.159 126.3C108.452 126.393 108.859 126.513 109.379 126.66C110.099 126.86 110.699 127.067 111.179 127.28C111.659 127.493 112.066 127.82 112.399 128.26C112.732 128.7 112.899 129.28 112.899 130C112.899 130.653 112.706 131.227 112.319 131.72C111.932 132.2 111.432 132.567 110.819 132.82C110.219 133.073 109.599 133.2 108.959 133.2C108.079 133.2 107.259 133.053 106.499 132.76C105.739 132.467 105.119 131.993 104.639 131.34ZM120.067 130.74C120.254 130.74 120.421 130.833 120.567 131.02C120.727 131.193 120.807 131.427 120.807 131.72C120.807 132.08 120.607 132.387 120.207 132.64C119.821 132.88 119.381 133 118.887 133C118.061 133 117.361 132.827 116.787 132.48C116.227 132.12 115.947 131.367 115.947 130.22V124.7H115.027C114.707 124.7 114.441 124.593 114.227 124.38C114.014 124.167 113.907 123.9 113.907 123.58C113.907 123.273 114.014 123.02 114.227 122.82C114.441 122.607 114.707 122.5 115.027 122.5H115.947V121.22C115.947 120.873 116.061 120.587 116.287 120.36C116.527 120.12 116.821 120 117.167 120C117.501 120 117.781 120.12 118.007 120.36C118.234 120.587 118.347 120.873 118.347 121.22V122.5H119.767C120.087 122.5 120.354 122.607 120.567 122.82C120.781 123.033 120.887 123.3 120.887 123.62C120.887 123.927 120.781 124.187 120.567 124.4C120.354 124.6 120.087 124.7 119.767 124.7H118.347V130.12C118.347 130.4 118.421 130.607 118.567 130.74C118.714 130.86 118.914 130.92 119.167 130.92C119.274 130.92 119.421 130.893 119.607 130.84C119.767 130.773 119.921 130.74 120.067 130.74ZM131.751 122.1C132.098 122.1 132.384 122.213 132.611 122.44C132.838 122.667 132.951 122.96 132.951 123.32V131.78C132.951 132.127 132.838 132.42 132.611 132.66C132.384 132.887 132.098 133 131.751 133C131.404 133 131.118 132.887 130.891 132.66C130.678 132.433 130.564 132.147 130.551 131.8C130.218 132.187 129.764 132.52 129.191 132.8C128.631 133.067 128.038 133.2 127.411 133.2C126.491 133.2 125.658 132.967 124.911 132.5C124.164 132.02 123.571 131.36 123.131 130.52C122.704 129.68 122.491 128.727 122.491 127.66C122.491 126.593 122.704 125.64 123.131 124.8C123.558 123.947 124.138 123.287 124.871 122.82C125.618 122.34 126.438 122.1 127.331 122.1C127.971 122.1 128.571 122.22 129.131 122.46C129.691 122.687 130.164 122.98 130.551 123.34V123.32C130.551 122.973 130.664 122.687 130.891 122.46C131.118 122.22 131.404 122.1 131.751 122.1ZM127.711 131C128.578 131 129.284 130.687 129.831 130.06C130.378 129.42 130.651 128.62 130.651 127.66C130.651 126.7 130.378 125.9 129.831 125.26C129.284 124.62 128.578 124.3 127.711 124.3C126.858 124.3 126.158 124.62 125.611 125.26C125.064 125.9 124.791 126.7 124.791 127.66C124.791 128.62 125.058 129.42 125.591 130.06C126.138 130.687 126.844 131 127.711 131ZM149.817 118.2C150.164 118.2 150.451 118.313 150.677 118.54C150.904 118.767 151.017 119.06 151.017 119.42V131.78C151.017 132.127 150.904 132.42 150.677 132.66C150.451 132.887 150.164 133 149.817 133C149.471 133 149.184 132.887 148.957 132.66C148.744 132.433 148.631 132.147 148.617 131.8C148.284 132.187 147.831 132.52 147.257 132.8C146.697 133.067 146.104 133.2 145.477 133.2C144.557 133.2 143.724 132.967 142.977 132.5C142.231 132.02 141.637 131.36 141.197 130.52C140.771 129.68 140.557 128.727 140.557 127.66C140.557 126.593 140.771 125.64 141.197 124.8C141.624 123.947 142.204 123.287 142.937 122.82C143.684 122.34 144.504 122.1 145.397 122.1C146.037 122.1 146.637 122.22 147.197 122.46C147.757 122.687 148.231 122.98 148.617 123.34V119.42C148.617 119.073 148.731 118.787 148.957 118.56C149.184 118.32 149.471 118.2 149.817 118.2ZM145.777 131C146.644 131 147.351 130.687 147.897 130.06C148.444 129.42 148.717 128.62 148.717 127.66C148.717 126.7 148.444 125.9 147.897 125.26C147.351 124.62 146.644 124.3 145.777 124.3C144.924 124.3 144.224 124.62 143.677 125.26C143.131 125.9 142.857 126.7 142.857 127.66C142.857 128.62 143.124 129.42 143.657 130.06C144.204 130.687 144.911 131 145.777 131ZM163.898 127.66C163.898 128.727 163.658 129.687 163.178 130.54C162.698 131.38 162.038 132.033 161.198 132.5C160.372 132.967 159.458 133.2 158.458 133.2C157.445 133.2 156.525 132.967 155.698 132.5C154.872 132.033 154.218 131.38 153.738 130.54C153.258 129.687 153.018 128.727 153.018 127.66C153.018 126.593 153.258 125.64 153.738 124.8C154.218 123.947 154.872 123.287 155.698 122.82C156.525 122.34 157.445 122.1 158.458 122.1C159.458 122.1 160.372 122.34 161.198 122.82C162.038 123.287 162.698 123.947 163.178 124.8C163.658 125.64 163.898 126.593 163.898 127.66ZM161.498 127.66C161.498 127.007 161.358 126.427 161.078 125.92C160.812 125.4 160.445 125 159.978 124.72C159.525 124.44 159.018 124.3 158.458 124.3C157.898 124.3 157.385 124.44 156.918 124.72C156.465 125 156.098 125.4 155.818 125.92C155.552 126.427 155.418 127.007 155.418 127.66C155.418 128.313 155.552 128.893 155.818 129.4C156.098 129.907 156.465 130.3 156.918 130.58C157.385 130.86 157.898 131 158.458 131C159.018 131 159.525 130.86 159.978 130.58C160.445 130.3 160.812 129.907 161.078 129.4C161.358 128.893 161.498 128.313 161.498 127.66ZM179.429 130.66C179.776 130.66 180.062 130.773 180.289 131C180.529 131.213 180.649 131.493 180.649 131.84C180.649 132.173 180.529 132.453 180.289 132.68C180.062 132.893 179.776 133 179.429 133H172.929C172.582 133 172.289 132.887 172.049 132.66C171.822 132.42 171.709 132.127 171.709 131.78V120.22C171.709 119.873 171.829 119.587 172.069 119.36C172.309 119.12 172.616 119 172.989 119C173.322 119 173.609 119.12 173.849 119.36C174.089 119.587 174.209 119.873 174.209 120.22V130.66H179.429ZM190.679 122.3C191.026 122.3 191.313 122.42 191.539 122.66C191.766 122.887 191.879 123.173 191.879 123.52V128.6C191.879 130.04 191.479 131.167 190.679 131.98C189.893 132.793 188.766 133.2 187.299 133.2C185.833 133.2 184.706 132.793 183.919 131.98C183.133 131.167 182.739 130.04 182.739 128.6V123.52C182.739 123.173 182.853 122.887 183.079 122.66C183.306 122.42 183.593 122.3 183.939 122.3C184.286 122.3 184.573 122.42 184.799 122.66C185.026 122.887 185.139 123.173 185.139 123.52V128.6C185.139 129.413 185.319 130.02 185.679 130.42C186.039 130.807 186.579 131 187.299 131C188.033 131 188.579 130.807 188.939 130.42C189.299 130.02 189.479 129.413 189.479 128.6V123.52C189.479 123.173 189.593 122.887 189.819 122.66C190.046 122.42 190.333 122.3 190.679 122.3ZM199.138 122.1C200.271 122.1 201.184 122.28 201.878 122.64C202.571 122.987 202.918 123.453 202.918 124.04C202.918 124.333 202.831 124.593 202.658 124.82C202.484 125.033 202.258 125.14 201.978 125.14C201.764 125.14 201.591 125.113 201.458 125.06C201.324 124.993 201.191 124.913 201.058 124.82C200.938 124.713 200.818 124.627 200.698 124.56C200.564 124.493 200.364 124.433 200.098 124.38C199.844 124.327 199.638 124.3 199.478 124.3C198.478 124.3 197.691 124.613 197.118 125.24C196.558 125.853 196.278 126.66 196.278 127.66C196.278 128.62 196.564 129.42 197.138 130.06C197.711 130.687 198.444 131 199.338 131C199.991 131 200.478 130.92 200.798 130.76C200.878 130.72 200.984 130.653 201.118 130.56C201.264 130.453 201.398 130.373 201.518 130.32C201.638 130.267 201.784 130.24 201.958 130.24C202.291 130.24 202.551 130.347 202.738 130.56C202.938 130.773 203.038 131.047 203.038 131.38C203.038 131.7 202.851 132 202.478 132.28C202.104 132.56 201.611 132.787 200.998 132.96C200.384 133.12 199.731 133.2 199.038 133.2C198.011 133.2 197.104 132.96 196.318 132.48C195.544 132 194.944 131.34 194.518 130.5C194.091 129.647 193.878 128.7 193.878 127.66C193.878 126.58 194.098 125.62 194.538 124.78C194.991 123.94 195.618 123.287 196.418 122.82C197.218 122.34 198.124 122.1 199.138 122.1ZM213.431 122.1C213.777 122.1 214.064 122.213 214.291 122.44C214.517 122.667 214.631 122.96 214.631 123.32V131.78C214.631 132.127 214.517 132.42 214.291 132.66C214.064 132.887 213.777 133 213.431 133C213.084 133 212.797 132.887 212.571 132.66C212.357 132.433 212.244 132.147 212.231 131.8C211.897 132.187 211.444 132.52 210.871 132.8C210.311 133.067 209.717 133.2 209.091 133.2C208.171 133.2 207.337 132.967 206.591 132.5C205.844 132.02 205.251 131.36 204.811 130.52C204.384 129.68 204.171 128.727 204.171 127.66C204.171 126.593 204.384 125.64 204.811 124.8C205.237 123.947 205.817 123.287 206.551 122.82C207.297 122.34 208.117 122.1 209.011 122.1C209.651 122.1 210.251 122.22 210.811 122.46C211.371 122.687 211.844 122.98 212.231 123.34V123.32C212.231 122.973 212.344 122.687 212.571 122.46C212.797 122.22 213.084 122.1 213.431 122.1ZM209.391 131C210.257 131 210.964 130.687 211.511 130.06C212.057 129.42 212.331 128.62 212.331 127.66C212.331 126.7 212.057 125.9 211.511 125.26C210.964 124.62 210.257 124.3 209.391 124.3C208.537 124.3 207.837 124.62 207.291 125.26C206.744 125.9 206.471 126.7 206.471 127.66C206.471 128.62 206.737 129.42 207.271 130.06C207.817 130.687 208.524 131 209.391 131ZM216.612 131.34C216.492 131.18 216.432 130.98 216.432 130.74C216.432 130.393 216.605 130.1 216.952 129.86C217.138 129.74 217.332 129.68 217.532 129.68C217.812 129.68 218.078 129.807 218.332 130.06C218.732 130.473 219.145 130.78 219.572 130.98C220.012 131.18 220.538 131.28 221.152 131.28C222.192 131.24 222.712 130.847 222.712 130.1C222.712 129.713 222.532 129.42 222.172 129.22C221.825 129.02 221.278 128.82 220.532 128.62C219.758 128.407 219.125 128.193 218.632 127.98C218.152 127.767 217.732 127.447 217.372 127.02C217.025 126.58 216.852 125.993 216.852 125.26C216.852 124.62 217.032 124.067 217.392 123.6C217.765 123.12 218.245 122.753 218.832 122.5C219.432 122.233 220.065 122.1 220.732 122.1C221.412 122.1 222.092 122.227 222.772 122.48C223.452 122.733 223.985 123.107 224.372 123.6C224.545 123.813 224.632 124.053 224.632 124.32C224.632 124.627 224.505 124.88 224.252 125.08C224.065 125.227 223.852 125.3 223.612 125.3C223.318 125.3 223.078 125.207 222.892 125.02C222.652 124.727 222.338 124.493 221.952 124.32C221.578 124.147 221.152 124.06 220.672 124.06C219.658 124.06 219.152 124.427 219.152 125.16C219.152 125.453 219.245 125.693 219.432 125.88C219.618 126.053 219.852 126.193 220.132 126.3C220.425 126.393 220.832 126.513 221.352 126.66C222.072 126.86 222.672 127.067 223.152 127.28C223.632 127.493 224.038 127.82 224.372 128.26C224.705 128.7 224.872 129.28 224.872 130C224.872 130.653 224.678 131.227 224.292 131.72C223.905 132.2 223.405 132.567 222.792 132.82C222.192 133.073 221.572 133.2 220.932 133.2C220.052 133.2 219.232 133.053 218.472 132.76C217.712 132.467 217.092 131.993 216.612 131.34Z" fill="white"/>
<path d="M91.6595 156.244C91.7995 156.337 91.8695 156.454 91.8695 156.594C91.8695 156.641 91.8508 156.701 91.8135 156.776C91.7761 156.841 91.7248 156.893 91.6595 156.93C91.5941 156.967 91.5241 156.986 91.4495 156.986C91.3561 156.986 91.2768 156.967 91.2115 156.93C90.9501 156.781 90.7401 156.538 90.5815 156.202C90.4228 155.866 90.3435 155.329 90.3435 154.592C90.3435 153.939 90.1615 153.481 89.7975 153.22C89.4335 152.949 88.9995 152.814 88.4955 152.814H85.3875V156.58C85.3875 156.701 85.3501 156.804 85.2755 156.888C85.2008 156.963 85.1028 157 84.9815 157C84.8508 157 84.7388 156.963 84.6455 156.888C84.5521 156.804 84.5055 156.701 84.5055 156.58V147.62C84.5055 147.499 84.5428 147.401 84.6175 147.326C84.7015 147.242 84.8041 147.2 84.9255 147.2H88.7055C89.2375 147.2 89.7135 147.317 90.1335 147.55C90.5535 147.774 90.8801 148.087 91.1135 148.488C91.3561 148.889 91.4775 149.342 91.4775 149.846C91.4775 150.443 91.3188 150.971 91.0015 151.428C90.6935 151.876 90.2875 152.184 89.7835 152.352C90.1941 152.511 90.5301 152.781 90.7915 153.164C91.0528 153.537 91.1881 153.995 91.1975 154.536C91.2068 155.115 91.2441 155.521 91.3095 155.754C91.3841 155.987 91.5008 156.151 91.6595 156.244ZM88.7475 152.044C89.0741 152.016 89.3775 151.909 89.6575 151.722C89.9375 151.535 90.1615 151.283 90.3295 150.966C90.4975 150.649 90.5815 150.285 90.5815 149.874C90.5815 149.342 90.3995 148.903 90.0355 148.558C89.6808 148.203 89.2141 148.026 88.6355 148.026H85.3875V152.044H88.7475ZM98.8856 149.888C99.007 149.888 99.105 149.93 99.1796 150.014C99.2636 150.089 99.3056 150.187 99.3056 150.308V154.256C99.3056 155.171 99.049 155.875 98.5356 156.37C98.0223 156.855 97.313 157.098 96.4076 157.098C95.5116 157.098 94.807 156.855 94.2936 156.37C93.7896 155.875 93.5376 155.171 93.5376 154.256V150.308C93.5376 150.187 93.575 150.089 93.6496 150.014C93.7336 149.93 93.8363 149.888 93.9576 149.888C94.079 149.888 94.177 149.93 94.2516 150.014C94.3356 150.089 94.3776 150.187 94.3776 150.308V154.256C94.3776 154.928 94.555 155.441 94.9096 155.796C95.2643 156.141 95.7636 156.314 96.4076 156.314C97.061 156.314 97.565 156.141 97.9196 155.796C98.2836 155.441 98.4656 154.928 98.4656 154.256V150.308C98.4656 150.187 98.503 150.089 98.5776 150.014C98.6616 149.93 98.7643 149.888 98.8856 149.888ZM107.318 149.846C107.44 149.846 107.538 149.888 107.612 149.972C107.696 150.056 107.738 150.159 107.738 150.28V156.58C107.738 156.701 107.696 156.804 107.612 156.888C107.538 156.963 107.44 157 107.318 157C107.197 157 107.094 156.963 107.01 156.888C106.936 156.804 106.898 156.701 106.898 156.58V155.642C106.665 156.062 106.315 156.417 105.848 156.706C105.382 156.995 104.873 157.14 104.322 157.14C103.697 157.14 103.132 156.977 102.628 156.65C102.134 156.323 101.742 155.875 101.452 155.306C101.172 154.737 101.032 154.097 101.032 153.388C101.032 152.679 101.177 152.044 101.466 151.484C101.756 150.915 102.148 150.471 102.642 150.154C103.146 149.837 103.702 149.678 104.308 149.678C104.868 149.678 105.382 149.813 105.848 150.084C106.315 150.355 106.665 150.709 106.898 151.148V150.28C106.898 150.159 106.936 150.056 107.01 149.972C107.094 149.888 107.197 149.846 107.318 149.846ZM104.406 156.356C104.892 156.356 105.326 156.23 105.708 155.978C106.1 155.717 106.404 155.362 106.618 154.914C106.842 154.457 106.954 153.948 106.954 153.388C106.954 152.847 106.842 152.352 106.618 151.904C106.404 151.456 106.1 151.106 105.708 150.854C105.326 150.593 104.892 150.462 104.406 150.462C103.921 150.462 103.482 150.588 103.09 150.84C102.708 151.092 102.404 151.442 102.18 151.89C101.966 152.329 101.858 152.828 101.858 153.388C101.858 153.948 101.966 154.457 102.18 154.914C102.395 155.362 102.694 155.717 103.076 155.978C103.468 156.23 103.912 156.356 104.406 156.356ZM119.05 147.2C119.181 147.2 119.279 147.237 119.344 147.312C119.419 147.387 119.456 147.48 119.456 147.592C119.456 147.639 119.442 147.704 119.414 147.788L115.564 156.762C115.527 156.846 115.471 156.916 115.396 156.972C115.322 157.019 115.242 157.042 115.158 157.042C115.046 157.042 114.944 157.005 114.85 156.93C114.766 156.855 114.724 156.762 114.724 156.65C114.724 156.575 114.738 156.505 114.766 156.44L118.392 147.998H113.898C113.786 147.998 113.688 147.961 113.604 147.886C113.53 147.811 113.492 147.713 113.492 147.592C113.492 147.48 113.53 147.387 113.604 147.312C113.688 147.237 113.786 147.2 113.898 147.2H119.05ZM130.643 146.64C130.764 146.64 130.862 146.682 130.937 146.766C131.021 146.841 131.063 146.939 131.063 147.06V156.58C131.063 156.701 131.021 156.804 130.937 156.888C130.862 156.963 130.764 157 130.643 157C130.521 157 130.419 156.963 130.335 156.888C130.26 156.804 130.223 156.701 130.223 156.58V155.6C129.989 156.029 129.639 156.393 129.173 156.692C128.715 156.991 128.207 157.14 127.647 157.14C127.031 157.14 126.471 156.981 125.967 156.664C125.472 156.337 125.08 155.889 124.791 155.32C124.501 154.751 124.357 154.111 124.357 153.402C124.357 152.702 124.501 152.067 124.791 151.498C125.08 150.929 125.472 150.485 125.967 150.168C126.471 149.841 127.026 149.678 127.633 149.678C128.183 149.678 128.692 149.818 129.159 150.098C129.625 150.369 129.98 150.723 130.223 151.162V147.06C130.223 146.939 130.26 146.841 130.335 146.766C130.419 146.682 130.521 146.64 130.643 146.64ZM127.731 156.356C128.216 156.356 128.65 156.23 129.033 155.978C129.425 155.726 129.728 155.376 129.943 154.928C130.167 154.471 130.279 153.962 130.279 153.402C130.279 152.851 130.167 152.352 129.943 151.904C129.728 151.456 129.425 151.106 129.033 150.854C128.65 150.593 128.216 150.462 127.731 150.462C127.245 150.462 126.807 150.593 126.415 150.854C126.032 151.106 125.729 151.456 125.505 151.904C125.29 152.352 125.183 152.851 125.183 153.402C125.183 153.962 125.29 154.466 125.505 154.914C125.729 155.362 126.032 155.717 126.415 155.978C126.807 156.23 127.245 156.356 127.731 156.356ZM139.302 153.01C139.302 153.122 139.26 153.22 139.176 153.304C139.092 153.379 138.994 153.416 138.882 153.416H133.59C133.59 153.976 133.702 154.48 133.926 154.928C134.16 155.367 134.486 155.717 134.906 155.978C135.336 156.23 135.84 156.356 136.418 156.356C136.866 156.356 137.268 156.263 137.622 156.076C137.977 155.889 138.262 155.651 138.476 155.362C138.579 155.278 138.677 155.236 138.77 155.236C138.864 155.236 138.948 155.273 139.022 155.348C139.097 155.423 139.134 155.507 139.134 155.6C139.134 155.703 139.088 155.801 138.994 155.894C138.696 156.258 138.318 156.557 137.86 156.79C137.412 157.023 136.936 157.14 136.432 157.14C135.714 157.14 135.079 156.986 134.528 156.678C133.978 156.37 133.548 155.941 133.24 155.39C132.932 154.83 132.778 154.186 132.778 153.458C132.778 152.693 132.928 152.025 133.226 151.456C133.534 150.877 133.94 150.439 134.444 150.14C134.948 149.832 135.485 149.678 136.054 149.678C136.614 149.678 137.137 149.809 137.622 150.07C138.117 150.331 138.518 150.714 138.826 151.218C139.134 151.722 139.293 152.319 139.302 153.01ZM136.054 150.49C135.513 150.49 135.009 150.677 134.542 151.05C134.085 151.423 133.791 151.96 133.66 152.66H138.434V152.548C138.388 152.128 138.248 151.764 138.014 151.456C137.781 151.139 137.487 150.901 137.132 150.742C136.787 150.574 136.428 150.49 136.054 150.49ZM144.456 155.866C144.381 155.745 144.344 155.642 144.344 155.558C144.344 155.437 144.405 155.343 144.526 155.278C144.582 155.222 144.657 155.194 144.75 155.194C144.862 155.194 144.965 155.241 145.058 155.334C145.609 156.062 146.341 156.426 147.256 156.426C147.704 156.426 148.091 156.323 148.418 156.118C148.754 155.903 148.922 155.595 148.922 155.194C148.922 154.802 148.768 154.508 148.46 154.312C148.152 154.116 147.723 153.948 147.172 153.808C146.397 153.612 145.791 153.36 145.352 153.052C144.913 152.735 144.694 152.273 144.694 151.666C144.694 151.283 144.801 150.943 145.016 150.644C145.231 150.336 145.52 150.098 145.884 149.93C146.257 149.762 146.677 149.678 147.144 149.678C147.545 149.678 147.947 149.757 148.348 149.916C148.759 150.065 149.109 150.308 149.398 150.644C149.482 150.709 149.524 150.803 149.524 150.924C149.524 151.036 149.477 151.134 149.384 151.218C149.319 151.274 149.235 151.302 149.132 151.302C149.039 151.302 148.955 151.265 148.88 151.19C148.656 150.938 148.39 150.747 148.082 150.616C147.774 150.485 147.443 150.42 147.088 150.42C146.649 150.42 146.271 150.523 145.954 150.728C145.646 150.933 145.492 151.241 145.492 151.652C145.511 152.025 145.679 152.31 145.996 152.506C146.323 152.702 146.799 152.879 147.424 153.038C147.909 153.159 148.311 153.295 148.628 153.444C148.945 153.593 149.202 153.803 149.398 154.074C149.603 154.345 149.706 154.704 149.706 155.152C149.706 155.759 149.463 156.244 148.978 156.608C148.493 156.963 147.891 157.14 147.172 157.14C146.033 157.14 145.128 156.715 144.456 155.866ZM157.472 153.01C157.472 153.122 157.43 153.22 157.346 153.304C157.262 153.379 157.164 153.416 157.052 153.416H151.76C151.76 153.976 151.872 154.48 152.096 154.928C152.33 155.367 152.656 155.717 153.076 155.978C153.506 156.23 154.01 156.356 154.588 156.356C155.036 156.356 155.438 156.263 155.792 156.076C156.147 155.889 156.432 155.651 156.646 155.362C156.749 155.278 156.847 155.236 156.94 155.236C157.034 155.236 157.118 155.273 157.192 155.348C157.267 155.423 157.304 155.507 157.304 155.6C157.304 155.703 157.258 155.801 157.164 155.894C156.866 156.258 156.488 156.557 156.03 156.79C155.582 157.023 155.106 157.14 154.602 157.14C153.884 157.14 153.249 156.986 152.698 156.678C152.148 156.37 151.718 155.941 151.41 155.39C151.102 154.83 150.948 154.186 150.948 153.458C150.948 152.693 151.098 152.025 151.396 151.456C151.704 150.877 152.11 150.439 152.614 150.14C153.118 149.832 153.655 149.678 154.224 149.678C154.784 149.678 155.307 149.809 155.792 150.07C156.287 150.331 156.688 150.714 156.996 151.218C157.304 151.722 157.463 152.319 157.472 153.01ZM154.224 150.49C153.683 150.49 153.179 150.677 152.712 151.05C152.255 151.423 151.961 151.96 151.83 152.66H156.604V152.548C156.558 152.128 156.418 151.764 156.184 151.456C155.951 151.139 155.657 150.901 155.302 150.742C154.957 150.574 154.598 150.49 154.224 150.49ZM160.604 150.658V155.348C160.604 155.703 160.669 155.945 160.8 156.076C160.93 156.197 161.103 156.258 161.318 156.258C161.374 156.258 161.444 156.249 161.528 156.23C161.612 156.202 161.677 156.188 161.724 156.188C161.808 156.188 161.878 156.225 161.934 156.3C161.999 156.365 162.032 156.445 162.032 156.538C162.032 156.669 161.957 156.781 161.808 156.874C161.658 156.958 161.481 157 161.276 157C161.024 157 160.8 156.977 160.604 156.93C160.408 156.883 160.216 156.743 160.03 156.51C159.852 156.277 159.764 155.903 159.764 155.39V150.658H158.742C158.63 150.658 158.532 150.621 158.448 150.546C158.373 150.471 158.336 150.378 158.336 150.266C158.336 150.154 158.373 150.061 158.448 149.986C158.532 149.911 158.63 149.874 158.742 149.874H159.764V148.32C159.764 148.199 159.801 148.101 159.876 148.026C159.96 147.942 160.062 147.9 160.184 147.9C160.305 147.9 160.403 147.942 160.478 148.026C160.562 148.101 160.604 148.199 160.604 148.32V149.874H162.004C162.106 149.874 162.195 149.916 162.27 150C162.354 150.084 162.396 150.177 162.396 150.28C162.396 150.392 162.358 150.485 162.284 150.56C162.209 150.625 162.116 150.658 162.004 150.658H160.604ZM169.927 153.01C169.927 153.122 169.885 153.22 169.801 153.304C169.717 153.379 169.619 153.416 169.507 153.416H164.215C164.215 153.976 164.327 154.48 164.551 154.928C164.785 155.367 165.111 155.717 165.531 155.978C165.961 156.23 166.465 156.356 167.043 156.356C167.491 156.356 167.893 156.263 168.247 156.076C168.602 155.889 168.887 155.651 169.101 155.362C169.204 155.278 169.302 155.236 169.395 155.236C169.489 155.236 169.573 155.273 169.647 155.348C169.722 155.423 169.759 155.507 169.759 155.6C169.759 155.703 169.713 155.801 169.619 155.894C169.321 156.258 168.943 156.557 168.485 156.79C168.037 157.023 167.561 157.14 167.057 157.14C166.339 157.14 165.704 156.986 165.153 156.678C164.603 156.37 164.173 155.941 163.865 155.39C163.557 154.83 163.403 154.186 163.403 153.458C163.403 152.693 163.553 152.025 163.851 151.456C164.159 150.877 164.565 150.439 165.069 150.14C165.573 149.832 166.11 149.678 166.679 149.678C167.239 149.678 167.762 149.809 168.247 150.07C168.742 150.331 169.143 150.714 169.451 151.218C169.759 151.722 169.918 152.319 169.927 153.01ZM166.679 150.49C166.138 150.49 165.634 150.677 165.167 151.05C164.71 151.423 164.416 151.96 164.285 152.66H169.059V152.548C169.013 152.128 168.873 151.764 168.639 151.456C168.406 151.139 168.112 150.901 167.757 150.742C167.412 150.574 167.053 150.49 166.679 150.49ZM179.779 149.79C180.619 149.79 181.235 150.051 181.627 150.574C182.028 151.087 182.229 151.769 182.229 152.618V156.58C182.229 156.701 182.187 156.804 182.103 156.888C182.028 156.963 181.93 157 181.809 157C181.687 157 181.585 156.963 181.501 156.888C181.426 156.804 181.389 156.701 181.389 156.58V152.66C181.389 152.044 181.239 151.545 180.941 151.162C180.651 150.77 180.199 150.574 179.583 150.574C179.191 150.574 178.817 150.667 178.463 150.854C178.117 151.041 177.837 151.297 177.623 151.624C177.408 151.941 177.301 152.287 177.301 152.66V156.58C177.301 156.701 177.259 156.804 177.175 156.888C177.1 156.963 177.002 157 176.881 157C176.759 157 176.657 156.963 176.573 156.888C176.498 156.804 176.461 156.701 176.461 156.58V152.618C176.461 152.011 176.321 151.521 176.041 151.148C175.761 150.765 175.322 150.574 174.725 150.574C174.342 150.574 173.978 150.667 173.633 150.854C173.297 151.041 173.021 151.293 172.807 151.61C172.601 151.918 172.499 152.254 172.499 152.618V156.58C172.499 156.701 172.457 156.804 172.373 156.888C172.298 156.963 172.2 157 172.079 157C171.957 157 171.855 156.963 171.771 156.888C171.696 156.804 171.659 156.701 171.659 156.58V150.308C171.659 150.187 171.696 150.089 171.771 150.014C171.855 149.93 171.957 149.888 172.079 149.888C172.2 149.888 172.298 149.93 172.373 150.014C172.457 150.089 172.499 150.187 172.499 150.308V151.12C172.751 150.737 173.091 150.42 173.521 150.168C173.95 149.916 174.403 149.79 174.879 149.79C175.42 149.79 175.887 149.921 176.279 150.182C176.671 150.443 176.951 150.826 177.119 151.33C177.315 150.919 177.674 150.56 178.197 150.252C178.719 149.944 179.247 149.79 179.779 149.79ZM187.83 149.678C188.446 149.678 189.006 149.837 189.51 150.154C190.014 150.471 190.406 150.915 190.686 151.484C190.976 152.044 191.12 152.679 191.12 153.388C191.12 154.088 190.976 154.727 190.686 155.306C190.406 155.875 190.014 156.323 189.51 156.65C189.016 156.977 188.46 157.14 187.844 157.14C187.312 157.14 186.818 157.009 186.36 156.748C185.912 156.477 185.548 156.123 185.268 155.684V156.608C185.268 156.729 185.226 156.832 185.142 156.916C185.068 157 184.97 157.042 184.848 157.042C184.727 157.042 184.624 157 184.54 156.916C184.466 156.832 184.428 156.729 184.428 156.608V147.074C184.428 146.953 184.466 146.855 184.54 146.78C184.624 146.696 184.727 146.654 184.848 146.654C184.97 146.654 185.068 146.696 185.142 146.78C185.226 146.855 185.268 146.953 185.268 147.074V151.204C185.52 150.747 185.875 150.378 186.332 150.098C186.79 149.818 187.289 149.678 187.83 149.678ZM187.76 156.356C188.246 156.356 188.68 156.225 189.062 155.964C189.454 155.703 189.758 155.348 189.972 154.9C190.196 154.443 190.308 153.939 190.308 153.388C190.308 152.828 190.196 152.329 189.972 151.89C189.758 151.442 189.454 151.092 189.062 150.84C188.68 150.588 188.246 150.462 187.76 150.462C187.266 150.462 186.822 150.588 186.43 150.84C186.038 151.083 185.735 151.428 185.52 151.876C185.306 152.324 185.198 152.828 185.198 153.388C185.198 153.948 185.306 154.457 185.52 154.914C185.744 155.362 186.048 155.717 186.43 155.978C186.822 156.23 187.266 156.356 187.76 156.356ZM196.196 149.678C196.383 149.678 196.551 149.715 196.7 149.79C196.849 149.865 196.924 149.977 196.924 150.126C196.924 150.257 196.887 150.364 196.812 150.448C196.737 150.523 196.649 150.56 196.546 150.56C196.499 150.56 196.406 150.537 196.266 150.49C196.135 150.443 196.009 150.42 195.888 150.42C195.543 150.42 195.197 150.555 194.852 150.826C194.516 151.087 194.236 151.428 194.012 151.848C193.797 152.268 193.69 152.693 193.69 153.122V156.58C193.69 156.701 193.648 156.804 193.564 156.888C193.489 156.963 193.391 157 193.27 157C193.149 157 193.046 156.963 192.962 156.888C192.887 156.804 192.85 156.701 192.85 156.58V150.308C192.85 150.187 192.887 150.089 192.962 150.014C193.046 149.93 193.149 149.888 193.27 149.888C193.391 149.888 193.489 149.93 193.564 150.014C193.648 150.089 193.69 150.187 193.69 150.308V151.54C193.905 151.008 194.227 150.569 194.656 150.224C195.095 149.869 195.608 149.687 196.196 149.678ZM204.53 153.416C204.53 154.116 204.376 154.751 204.068 155.32C203.76 155.889 203.336 156.337 202.794 156.664C202.253 156.981 201.651 157.14 200.988 157.14C200.326 157.14 199.724 156.981 199.182 156.664C198.641 156.337 198.216 155.889 197.908 155.32C197.6 154.751 197.446 154.116 197.446 153.416C197.446 152.716 197.6 152.081 197.908 151.512C198.216 150.943 198.641 150.495 199.182 150.168C199.724 149.841 200.326 149.678 200.988 149.678C201.651 149.678 202.253 149.841 202.794 150.168C203.336 150.495 203.76 150.943 204.068 151.512C204.376 152.081 204.53 152.716 204.53 153.416ZM203.69 153.416C203.69 152.856 203.574 152.352 203.34 151.904C203.107 151.456 202.78 151.106 202.36 150.854C201.95 150.593 201.492 150.462 200.988 150.462C200.484 150.462 200.027 150.593 199.616 150.854C199.206 151.106 198.879 151.456 198.636 151.904C198.403 152.352 198.286 152.856 198.286 153.416C198.286 153.967 198.403 154.466 198.636 154.914C198.879 155.362 199.206 155.717 199.616 155.978C200.027 156.23 200.484 156.356 200.988 156.356C201.492 156.356 201.95 156.23 202.36 155.978C202.78 155.726 203.107 155.376 203.34 154.928C203.574 154.48 203.69 153.976 203.69 153.416ZM207.327 156.958C207.327 157.219 207.257 157.481 207.117 157.742C206.986 158.013 206.818 158.232 206.613 158.4C206.407 158.577 206.207 158.666 206.011 158.666C205.908 158.666 205.819 158.638 205.745 158.582C205.679 158.535 205.647 158.461 205.647 158.358C205.647 158.265 205.67 158.199 205.717 158.162C205.763 158.125 205.833 158.092 205.927 158.064C206.029 158.036 206.104 158.008 206.151 157.98C206.281 157.915 206.379 157.817 206.445 157.686C206.519 157.565 206.557 157.429 206.557 157.28C206.557 157.177 206.529 157.093 206.473 157.028C206.417 156.963 206.342 156.93 206.249 156.93C206.099 156.93 205.973 156.972 205.871 157.056C205.759 156.963 205.703 156.851 205.703 156.72C205.703 156.552 205.787 156.407 205.955 156.286C206.123 156.155 206.305 156.09 206.501 156.09C206.743 156.09 206.939 156.169 207.089 156.328C207.247 156.477 207.327 156.687 207.327 156.958ZM215.849 150.798C216.4 150.798 216.895 150.947 217.333 151.246C217.781 151.545 218.127 151.941 218.369 152.436C218.621 152.931 218.747 153.453 218.747 154.004C218.747 154.555 218.612 155.073 218.341 155.558C218.08 156.034 217.716 156.417 217.249 156.706C216.783 156.995 216.26 157.14 215.681 157.14C214.981 157.14 214.389 156.977 213.903 156.65C213.418 156.323 213.054 155.894 212.811 155.362C212.578 154.83 212.461 154.256 212.461 153.64C212.461 152.847 212.629 151.997 212.965 151.092C213.301 150.177 213.791 149.342 214.435 148.586C215.079 147.821 215.845 147.27 216.731 146.934C216.806 146.915 216.867 146.906 216.913 146.906C217.035 146.906 217.137 146.943 217.221 147.018C217.305 147.093 217.347 147.2 217.347 147.34C217.347 147.536 217.235 147.671 217.011 147.746C216.265 148.054 215.56 148.6 214.897 149.384C214.244 150.159 213.796 150.985 213.553 151.862C213.833 151.535 214.169 151.279 214.561 151.092C214.963 150.896 215.392 150.798 215.849 150.798ZM215.653 156.328C216.307 156.328 216.843 156.113 217.263 155.684C217.683 155.245 217.893 154.685 217.893 154.004C217.893 153.584 217.805 153.192 217.627 152.828C217.459 152.464 217.212 152.17 216.885 151.946C216.559 151.722 216.171 151.61 215.723 151.61C215.238 151.61 214.813 151.722 214.449 151.946C214.085 152.161 213.805 152.455 213.609 152.828C213.413 153.192 213.315 153.598 213.315 154.046C213.315 154.457 213.409 154.835 213.595 155.18C213.782 155.525 214.053 155.805 214.407 156.02C214.762 156.225 215.177 156.328 215.653 156.328ZM222.767 150.798C223.29 150.798 223.775 150.919 224.223 151.162C224.68 151.405 225.044 151.759 225.315 152.226C225.595 152.693 225.735 153.243 225.735 153.878C225.735 154.513 225.581 155.077 225.273 155.572C224.974 156.067 224.564 156.454 224.041 156.734C223.518 157.005 222.94 157.14 222.305 157.14C221.904 157.14 221.516 157.075 221.143 156.944C220.77 156.813 220.452 156.617 220.191 156.356C220.06 156.263 219.995 156.151 219.995 156.02C219.995 155.908 220.037 155.805 220.121 155.712C220.205 155.609 220.303 155.558 220.415 155.558C220.527 155.558 220.644 155.609 220.765 155.712C221.157 156.132 221.698 156.342 222.389 156.342C222.837 156.342 223.252 156.239 223.635 156.034C224.018 155.829 224.321 155.539 224.545 155.166C224.769 154.793 224.881 154.373 224.881 153.906C224.881 153.393 224.764 152.963 224.531 152.618C224.307 152.273 224.008 152.021 223.635 151.862C223.271 151.694 222.884 151.61 222.473 151.61C222.361 151.61 222.216 151.629 222.039 151.666C221.862 151.694 221.75 151.708 221.703 151.708C221.591 151.708 221.498 151.671 221.423 151.596C221.358 151.512 221.325 151.409 221.325 151.288C221.325 151.167 221.372 151.059 221.465 150.966L224.139 147.998H220.247C220.135 147.998 220.037 147.961 219.953 147.886C219.878 147.811 219.841 147.713 219.841 147.592C219.841 147.48 219.878 147.387 219.953 147.312C220.037 147.237 220.135 147.2 220.247 147.2H224.951C225.1 147.2 225.208 147.247 225.273 147.34C225.348 147.424 225.385 147.522 225.385 147.634C225.385 147.746 225.338 147.849 225.245 147.942L222.683 150.798H222.767ZM230.642 157.14C229.905 157.14 229.284 156.921 228.78 156.482C228.276 156.043 227.894 155.446 227.632 154.69C227.38 153.925 227.254 153.061 227.254 152.1C227.254 151.129 227.38 150.266 227.632 149.51C227.884 148.754 228.262 148.157 228.766 147.718C229.28 147.279 229.905 147.06 230.642 147.06C231.38 147.06 232 147.279 232.504 147.718C233.018 148.147 233.4 148.745 233.652 149.51C233.914 150.266 234.044 151.129 234.044 152.1C234.044 153.061 233.914 153.925 233.652 154.69C233.4 155.446 233.018 156.043 232.504 156.482C232 156.921 231.38 157.14 230.642 157.14ZM230.642 156.272C231.445 156.272 232.061 155.899 232.49 155.152C232.929 154.396 233.148 153.379 233.148 152.1C233.148 150.812 232.929 149.795 232.49 149.048C232.061 148.292 231.445 147.914 230.642 147.914C229.849 147.914 229.233 148.292 228.794 149.048C228.365 149.795 228.15 150.812 228.15 152.1C228.15 153.379 228.365 154.396 228.794 155.152C229.233 155.899 229.849 156.272 230.642 156.272Z" fill="white"/>
</g>
<defs>
<filter id="filter0_d" x="50" y="82" width="275" height="463" filterUnits="userSpaceOnUse" color-interpolation-filters="sRGB">
<feFlood flood-opacity="0" result="BackgroundImageFix"/>
<feColorMatrix in="SourceAlpha" type="matrix" values="0 0 0 0 0 0 0 0 0 0 0 0 0 0 0 0 0 0 127 0"/>
<feOffset dy="4"/>
<feGaussianBlur stdDeviation="2"/>
<feColorMatrix type="matrix" values="0 0 0 0 0 0 0 0 0 0 0 0 0 0 0 0 0 0 0.17 0"/>
<feBlend mode="normal" in2="BackgroundImageFix" result="effect1_dropShadow"/>
<feBlend mode="normal" in="SourceGraphic" in2="effect1_dropShadow" result="shape"/>
</filter>
<filter id="filter1_d" x="340" y="81" width="275" height="463" filterUnits="userSpaceOnUse" color-interpolation-filters="sRGB">
<feFlood flood-opacity="0" result="BackgroundImageFix"/>
<feColorMatrix in="SourceAlpha" type="matrix" values="0 0 0 0 0 0 0 0 0 0 0 0 0 0 0 0 0 0 127 0"/>
<feOffset dy="4"/>
<feGaussianBlur stdDeviation="2"/>
<feColorMatrix type="matrix" values="0 0 0 0 0 0 0 0 0 0 0 0 0 0 0 0 0 0 0.17 0"/>
<feBlend mode="normal" in2="BackgroundImageFix" result="effect1_dropShadow"/>
<feBlend mode="normal" in="SourceGraphic" in2="effect1_dropShadow" result="shape"/>
</filter>
<filter id="filter2_d" x="-240" y="81" width="275" height="463" filterUnits="userSpaceOnUse" color-interpolation-filters="sRGB">
<feFlood flood-opacity="0" result="BackgroundImageFix"/>
<feColorMatrix in="SourceAlpha" type="matrix" values="0 0 0 0 0 0 0 0 0 0 0 0 0 0 0 0 0 0 127 0"/>
<feOffset dy="4"/>
<feGaussianBlur stdDeviation="2"/>
<feColorMatrix type="matrix" values="0 0 0 0 0 0 0 0 0 0 0 0 0 0 0 0 0 0 0.17 0"/>
<feBlend mode="normal" in2="BackgroundImageFix" result="effect1_dropShadow"/>
<feBlend mode="normal" in="SourceGraphic" in2="effect1_dropShadow" result="shape"/>
</filter>
<linearGradient id="paint0_linear" x1="0" y1="0" x2="266.25" y2="697.966" gradientUnits="userSpaceOnUse">
<stop stop-color="#FC66A4"/>
<stop offset="1" stop-color="#993CFF"/>
</linearGradient>
<clipPath id="clip0">
<rect width="375" height="667" fill="white"/>
</clipPath>
</defs>
</svg>
